<svg width="66" height="85" viewBox="0 0 66 85" fill="none" xmlns="http://www.w3.org/2000/svg">
<path d="M44.0905 84.4827L51.1491 75.1482L63.3273 78.2159L46.7798 38.1807L27.543 44.4475L44.0905 84.4827Z" fill="#FC8700"/>
<path d="M44.0949 84.9516H44.0315C43.9346 84.9413 43.8429 84.9073 43.7664 84.8535C43.6899 84.7997 43.6317 84.7281 43.5983 84.6467L27.0507 44.6162C27.0264 44.558 27.0152 44.4961 27.018 44.4341C27.0208 44.3721 27.0374 44.3111 27.0669 44.2549C27.0964 44.1986 27.1381 44.148 27.1898 44.1062C27.2414 44.0644 27.3019 44.032 27.3677 44.0111L46.5992 37.7584C46.731 37.7161 46.8762 37.722 47.003 37.7748C47.1298 37.8276 47.2278 37.9229 47.2755 38.0398L63.8231 78.0703C63.857 78.1515 63.8649 78.2395 63.846 78.3245C63.8271 78.4095 63.782 78.4881 63.7158 78.5518C63.6496 78.6154 63.5649 78.6615 63.471 78.685C63.3771 78.7085 63.2776 78.7084 63.1838 78.6848L51.3701 75.7109L44.5017 84.764C44.4541 84.8204 44.3929 84.8665 44.3224 84.899C44.252 84.9315 44.1742 84.9495 44.0949 84.9516ZM28.2448 44.7288L44.2481 83.4553L50.7308 74.8853C50.7932 74.8038 50.8829 74.7418 50.9873 74.7081C51.0916 74.6745 51.2052 74.6708 51.312 74.6977L62.4969 77.5121L46.4883 38.7809L28.2448 44.7288Z" fill="#040404"/>
<path d="M21.9106 84.4827L14.852 75.1482L2.67383 78.2159L19.2214 38.1807L38.4582 44.4475L21.9106 84.4827Z" fill="#FC8700"/>
<path d="M21.9042 84.9518C21.8176 84.9519 21.7324 84.9332 21.6559 84.8972C21.5794 84.8612 21.5141 84.8091 21.4656 84.7454L14.5972 75.6923L2.7836 78.6663C2.68973 78.6899 2.59033 78.6899 2.49642 78.6664C2.40251 78.6429 2.31775 78.5968 2.25155 78.5332C2.18535 78.4696 2.14029 78.3909 2.12137 78.3059C2.10244 78.221 2.11038 78.133 2.14432 78.0518L18.7341 38.0213C18.7818 37.9043 18.8798 37.809 19.0067 37.7563C19.1335 37.7035 19.2787 37.6976 19.4104 37.7398L38.6472 44.0066C38.713 44.0275 38.7735 44.0599 38.8251 44.1017C38.8768 44.1436 38.9186 44.1941 38.9481 44.2504C38.9775 44.3067 38.9942 44.3676 38.9969 44.4296C38.9997 44.4916 38.9886 44.5535 38.9642 44.6117L22.4325 84.6657C22.399 84.7471 22.3409 84.8186 22.2644 84.8724C22.1879 84.9263 22.0961 84.9602 21.9993 84.9706L21.9042 84.9518ZM14.8456 74.6792C14.9321 74.679 15.0174 74.6978 15.0938 74.7338C15.1703 74.7698 15.2356 74.8219 15.2841 74.8855L21.7668 83.4555L37.7543 44.729L19.5108 38.7811L3.50214 77.5123L14.6871 74.6979C14.7399 74.6826 14.7954 74.6763 14.8508 74.6792H14.8456Z" fill="#040404"/>
<path d="M65.4664 27.965C65.4664 30.8545 60.4313 33.0028 59.4803 35.6061C58.4923 38.308 61.1076 42.6657 59.2637 44.9125C57.4198 47.1594 51.9145 46.3197 49.3627 47.9615C46.8108 49.6032 46.0764 54.5285 43.0226 55.3869C40.0903 56.2312 36.244 52.6803 32.9842 52.6803C29.7243 52.6803 25.8833 56.2312 22.9458 55.3869C19.9025 54.5097 19.1523 49.5985 16.6057 47.9615C14.0591 46.3244 8.56439 47.1828 6.70464 44.9125C4.84489 42.6422 7.47602 38.308 6.48803 35.6061C5.53702 33.0028 0.501953 30.8545 0.501953 27.965C0.501953 25.0755 5.53702 22.9318 6.48803 20.3285C7.47602 17.6266 4.86074 13.2924 6.70464 11.0221C8.54854 8.75183 14.0855 9.61492 16.6215 7.97317C19.1576 6.33142 19.9078 1.40618 22.9616 0.547776C25.8939 -0.296551 29.7402 3.25432 33 3.25432C36.2599 3.25432 40.1009 -0.296551 43.0385 0.547776C46.0817 1.42494 46.8319 6.33611 49.3785 7.97317C51.9251 9.61023 57.4198 8.75183 59.2796 11.0221C61.1393 13.2924 58.5082 17.6266 59.4962 20.3285C60.4313 22.9318 65.4664 25.0943 65.4664 27.965Z" fill="#FC8700"/>
<path d="M42.0716 55.9866C40.5658 55.9866 38.9544 55.2502 37.3905 54.5372C35.8266 53.8242 34.342 53.13 33 53.13C31.658 53.13 30.11 53.8336 28.6095 54.5372C26.6494 55.4331 24.6206 56.3572 22.7978 55.8318C20.8905 55.283 19.8444 53.4302 18.83 51.6383C18.1009 50.339 17.3401 48.9975 16.3257 48.3549C15.3112 47.7122 13.5994 47.4542 11.9721 47.2338C9.75312 46.9289 7.46014 46.6146 6.30308 45.2027C5.14602 43.7908 5.52114 41.7832 5.87513 39.8271C6.13929 38.373 6.40346 36.8673 6.01249 35.765C5.62152 34.6627 4.50144 33.7339 3.29683 32.6832C1.68012 31.276 0 29.7984 0 27.9925C0 26.1866 1.68012 24.709 3.29683 23.3018C4.50144 22.2464 5.63209 21.2566 6.01249 20.22C6.39289 19.1833 6.13929 17.6119 5.87513 16.1531C5.52114 14.2018 5.15658 12.1848 6.30308 10.7823C7.44957 9.37974 9.75312 9.05609 11.9721 8.75119C13.5994 8.53073 15.2901 8.28212 16.3257 7.63011C17.3612 6.9781 18.1009 5.63187 18.83 4.34661C19.8444 2.55476 20.8905 0.701932 22.7978 0.153119C24.6153 -0.37224 26.6441 0.551829 28.6095 1.44775C30.11 2.12791 31.658 2.85497 33 2.85497C34.342 2.85497 35.89 2.14667 37.3905 1.44775C39.3506 0.551829 41.3794 -0.37224 43.2022 0.153119C45.1095 0.701932 46.1556 2.55476 47.17 4.34661C47.8991 5.64594 48.6599 6.98748 49.6744 7.63011C50.6888 8.27274 52.4006 8.53073 54.0279 8.75119C56.2469 9.05609 58.5399 9.36567 59.6969 10.7823C60.854 12.1989 60.4789 14.2018 60.1249 16.1531C59.8607 17.6119 59.5965 19.1177 59.9875 20.22C60.3785 21.3223 61.4986 22.2464 62.7032 23.3018C64.3199 24.709 66 26.1866 66 27.9925C66 29.7984 64.3199 31.276 62.7032 32.6832C61.4986 33.7386 60.3679 34.7283 59.9875 35.765C59.6071 36.8016 59.8607 38.373 60.1249 39.8271C60.4789 41.7832 60.8434 43.8002 59.6969 45.2027C58.5504 46.6052 56.2469 46.9289 54.0279 47.2338C52.4006 47.4542 50.7099 47.7028 49.6744 48.3549C48.6388 49.0069 47.8991 50.3531 47.17 51.6383C46.1556 53.4302 45.1095 55.283 43.2022 55.8318C42.8373 55.9377 42.4554 55.99 42.0716 55.9866ZM23.939 0.884869C23.6648 0.882518 23.3919 0.918935 23.1307 0.992755C21.646 1.41961 20.695 3.09419 19.781 4.71718C18.9938 6.12439 18.196 7.55975 16.9491 8.35248C15.7022 9.14521 13.89 9.4032 12.1359 9.64242C10.1335 9.91448 8.06244 10.1959 7.15898 11.2982C6.25553 12.4006 6.58838 14.1127 6.92651 15.989C7.21182 17.5557 7.50241 19.1739 7.02162 20.492C6.54083 21.8101 5.28338 22.8655 4.04707 23.9491C2.57829 25.2343 1.06196 26.5618 1.06196 27.9831C1.06196 29.4044 2.57829 30.7365 4.04707 32.0218C5.28338 33.1054 6.56196 34.2264 7.02162 35.4789C7.48127 36.7313 7.21182 38.4152 6.92651 39.9819C6.58838 41.8254 6.27138 43.5703 7.15898 44.6726C8.04659 45.775 10.1335 46.0799 12.1359 46.3285C13.89 46.5677 15.7075 46.7975 16.9491 47.6184C18.1907 48.4393 18.9938 49.8559 19.781 51.2537C20.695 52.872 21.6407 54.5372 23.1307 54.9781C24.5307 55.3815 26.3007 54.5841 28.1234 53.7398C29.7085 53.008 31.4044 52.2481 33 52.2481C34.5956 52.2481 36.2651 53.008 37.8766 53.7398C39.7257 54.5841 41.4693 55.3815 42.8694 54.9781C44.354 54.5513 45.305 52.872 46.219 51.2537C47.0062 49.8465 47.804 48.4111 49.0509 47.6184C50.2978 46.8257 52.11 46.5677 53.8641 46.3285C55.8665 46.0564 57.9376 45.775 58.841 44.6726C59.7445 43.5703 59.4116 41.8582 59.0735 39.9819C58.7882 38.4152 58.4976 36.7969 58.9784 35.4789C59.4592 34.1608 60.7166 33.1054 61.9529 32.0218C63.4217 30.7365 64.938 29.4091 64.938 27.9831C64.938 26.5571 63.4217 25.2343 61.9529 23.9491C60.7166 22.8655 59.438 21.7445 58.9784 20.492C58.5187 19.2396 58.7882 17.5557 59.0735 15.989C59.4116 14.1408 59.7286 12.4006 58.841 11.2982C57.9534 10.1959 55.8665 9.89103 53.8641 9.64242C52.11 9.4032 50.2925 9.17335 49.0509 8.35248C47.8093 7.5316 47.0062 6.11501 46.219 4.71718C45.305 3.09419 44.3593 1.43368 42.8694 0.992755C41.4693 0.589354 39.6993 1.38678 37.8766 2.2311C36.2915 2.96285 34.5956 3.72275 33 3.72275C31.4044 3.72275 29.7349 2.96285 28.1234 2.2311C26.6177 1.54157 25.1753 0.884869 23.939 0.884869Z" fill="#040404"/>
<path d="M32.9999 48.4671C45.7542 48.4671 56.0936 39.2876 56.0936 27.964C56.0936 16.6405 45.7542 7.46094 32.9999 7.46094C20.2456 7.46094 9.90625 16.6405 9.90625 27.964C9.90625 39.2876 20.2456 48.4671 32.9999 48.4671Z" fill="#FC8700"/>
<path d="M33.0009 48.9365C28.3289 48.9365 23.7619 47.7065 19.8772 45.4021C15.9926 43.0976 12.9649 39.8222 11.177 35.9901C9.38914 32.1579 8.92135 27.9411 9.83281 23.8729C10.7443 19.8047 12.994 16.0678 16.2976 13.1348C19.6012 10.2018 23.8103 8.20439 28.3925 7.39517C32.9747 6.58596 37.7243 7.00128 42.0407 8.58861C46.357 10.1759 50.0463 12.864 52.6419 16.3129C55.2375 19.7617 56.6229 23.8165 56.6229 27.9644C56.6159 33.5246 54.1249 38.8554 49.6965 42.7871C45.268 46.7188 39.2637 48.9303 33.0009 48.9365ZM33.0009 7.93503C28.5377 7.93503 24.1747 9.11012 20.4637 11.3117C16.7528 13.5133 13.8605 16.6424 12.1528 20.3034C10.445 23.9645 9.99845 27.9929 10.8696 31.8792C11.7407 35.7656 13.8903 39.3353 17.0467 42.1369C20.203 44.9385 24.2243 46.8462 28.6019 47.6187C32.9795 48.3912 37.5168 47.9938 41.6399 46.4767C45.7631 44.9597 49.287 42.3911 51.7659 39.0959C54.2447 35.8007 55.5673 31.9269 55.5662 27.9644C55.5592 22.6533 53.1794 17.5617 48.949 13.8067C44.7185 10.0517 38.983 7.93999 33.0009 7.93503Z" fill="#040404"/>
<path d="M35.1142 15.7772L37.6872 22.8133C37.742 22.9509 37.8436 23.07 37.978 23.154C38.1125 23.2381 38.273 23.2829 38.4374 23.2824H46.7799C47.3218 23.2816 47.8501 23.4334 48.2888 23.7159C48.7275 23.9985 49.054 24.3973 49.2213 24.855C49.3886 25.3126 49.3882 25.8056 49.2201 26.2631C49.052 26.7205 48.7248 27.1188 48.2856 27.4008L41.5388 31.7538C41.4046 31.8412 41.3048 31.9639 41.2536 32.1045C41.2024 32.2451 41.2023 32.3965 41.2535 32.5371L43.8317 39.5732C43.9974 40.0303 43.9963 40.5223 43.8285 40.9788C43.6607 41.4353 43.3348 41.8332 42.8972 42.1155C42.4597 42.3979 41.9329 42.5504 41.392 42.5512C40.8511 42.5521 40.3237 42.4012 39.8851 42.1202L33.1382 37.7673C33.0029 37.6803 32.8402 37.6335 32.6732 37.6335C32.5063 37.6335 32.3435 37.6803 32.2083 37.7673L25.4614 42.1202C25.0228 42.4012 24.4954 42.5521 23.9545 42.5512C23.4136 42.5504 22.8868 42.3979 22.4492 42.1155C22.0117 41.8332 21.6858 41.4353 21.518 40.9788C21.3502 40.5223 21.349 40.0303 21.5147 39.5732L24.093 32.5371C24.1441 32.3965 24.1441 32.2451 24.0929 32.1045C24.0417 31.9639 23.9419 31.8412 23.8077 31.7538L17.0608 27.4008C16.6217 27.1188 16.2945 26.7205 16.1264 26.2631C15.9583 25.8056 15.9579 25.3126 16.1252 24.855C16.2925 24.3973 16.619 23.9985 17.0577 23.7159C17.4963 23.4334 18.0246 23.2816 18.5666 23.2824H26.9091C27.0735 23.2829 27.234 23.2381 27.3684 23.154C27.5029 23.07 27.6045 22.9509 27.6593 22.8133L30.2323 15.7772C30.4004 15.3201 30.727 14.9219 31.1654 14.6395C31.6039 14.3571 32.1316 14.2051 32.6732 14.2051C33.2149 14.2051 33.7426 14.3571 34.181 14.6395C34.6194 14.9219 34.9461 15.3201 35.1142 15.7772Z" fill="#FC8700"/>
<path d="M24.2828 42.6975C23.7945 42.6955 23.3137 42.5913 22.8793 42.3934C22.4449 42.1956 22.0692 41.9096 21.7825 41.5587C21.4959 41.2078 21.3065 40.8019 21.2296 40.3738C21.1526 39.9458 21.1905 39.5077 21.3399 39.095L23.9182 32.059C23.9357 32.0119 23.9359 31.9611 23.9188 31.9139C23.9017 31.8667 23.8682 31.8255 23.8231 31.7963L17.0762 27.4386C16.5465 27.0984 16.1519 26.6179 15.9492 26.066C15.7465 25.5142 15.7461 24.9195 15.9481 24.3675C16.1501 23.8154 16.544 23.3344 17.0733 22.9937C17.6026 22.653 18.2399 22.47 18.8937 22.4712H27.2309C27.2865 22.4711 27.3408 22.4557 27.3862 22.4271C27.4316 22.3986 27.4659 22.3583 27.4845 22.3117L30.0575 15.2756C30.2603 14.7246 30.6542 14.2447 31.1827 13.9044C31.7113 13.5641 32.3474 13.3809 33.0003 13.3809C33.6532 13.3809 34.2894 13.5641 34.818 13.9044C35.3465 14.2447 35.7403 14.7246 35.9432 15.2756L38.5162 22.3117C38.5347 22.3583 38.5691 22.3986 38.6145 22.4271C38.6599 22.4557 38.7141 22.4711 38.7698 22.4712H47.107C47.7608 22.47 48.3981 22.653 48.9274 22.9937C49.4567 23.3344 49.8506 23.8154 50.0526 24.3675C50.2546 24.9195 50.2542 25.5142 50.0515 26.066C49.8488 26.6179 49.4542 27.0984 48.9245 27.4386L42.1776 31.7916C42.1323 31.8196 42.0985 31.8599 42.0813 31.9064C42.0641 31.953 42.0646 32.0033 42.0825 32.0496L44.6608 39.0857C44.86 39.6365 44.8585 40.229 44.6563 40.779C44.4542 41.329 44.0617 41.8083 43.5349 42.1487C43.008 42.4892 42.3736 42.6733 41.722 42.675C41.0704 42.6767 40.4348 42.4958 39.9057 42.1581L33.1588 37.8051C33.1148 37.7754 33.0609 37.7593 33.0056 37.7593C32.9503 37.7593 32.8965 37.7754 32.8524 37.8051L26.1055 42.1581C25.5783 42.5058 24.9396 42.6948 24.2828 42.6975ZM18.8937 23.414C18.4589 23.4083 18.0334 23.5265 17.6797 23.7512C17.3261 23.9759 17.0628 24.2953 16.9287 24.6626C16.7945 25.0299 16.7965 25.4257 16.9343 25.792C17.0721 26.1582 17.3385 26.4755 17.6944 26.6975L24.4465 31.0505C24.6715 31.1959 24.8388 31.401 24.9242 31.6361C25.0097 31.8713 25.0089 32.1244 24.9221 32.3592L22.3438 39.3952C22.2093 39.7585 22.2081 40.1503 22.3405 40.5141C22.4728 40.878 22.7319 41.1952 23.0802 41.42C23.4286 41.6448 23.8484 41.7657 24.2791 41.7651C24.7098 41.7645 25.1291 41.6426 25.4768 41.4169L32.2237 37.064C32.4491 36.9176 32.7211 36.8387 33.0003 36.8387C33.2796 36.8387 33.5516 36.9176 33.777 37.064L40.5239 41.4169C40.8715 41.6426 41.2909 41.7645 41.7216 41.7651C42.1523 41.7657 42.5721 41.6448 42.9204 41.42C43.2688 41.1952 43.5279 40.878 43.6602 40.5141C43.7926 40.1503 43.7914 39.7585 43.6569 39.3952L41.0786 32.3592C40.9918 32.1244 40.991 31.8713 41.0765 31.6361C41.1619 31.401 41.3291 31.1959 41.5541 31.0505L48.3221 26.6834C48.678 26.4615 48.9444 26.1441 49.0822 25.7779C49.22 25.4117 49.222 25.0159 49.0878 24.6486C48.9537 24.2813 48.6905 23.9618 48.3368 23.7371C47.9832 23.5124 47.5577 23.3942 47.1228 23.3999H38.7698C38.4903 23.4008 38.2177 23.3226 37.9916 23.1767C37.7655 23.0308 37.5977 22.8247 37.5123 22.5884L34.9341 15.5524C34.8009 15.1902 34.5422 14.8747 34.1949 14.651C33.8476 14.4272 33.4294 14.3068 33.0003 14.3068C32.5712 14.3068 32.1531 14.4272 31.8058 14.651C31.4585 14.8747 31.1998 15.1902 31.0666 15.5524L28.4883 22.5884C28.403 22.8247 28.2352 23.0308 28.0091 23.1767C27.783 23.3226 27.5104 23.4008 27.2309 23.3999L18.8937 23.414Z" fill="#040404"/>
</svg>
