<svg width="60" height="79" viewBox="0 0 60 79" fill="none" xmlns="http://www.w3.org/2000/svg">
<path d="M54.3662 41.5768C57.4674 37.6023 59.2843 32.9501 59.62 28.1243C59.9558 23.2984 58.7975 18.4831 56.2707 14.2C53.7439 9.91688 49.9451 6.32941 45.2857 3.82633C40.6264 1.32324 35.2843 0 29.8384 0C24.3925 0 19.0504 1.32324 14.3911 3.82633C9.73175 6.32941 5.93288 9.91688 3.40611 14.2C0.879337 18.4831 -0.278953 23.2984 0.056756 28.1243C0.392465 32.9501 2.20937 37.6023 5.31058 41.5768L5.34338 41.6096C6.0999 42.5804 6.92985 43.5045 7.82752 44.3755C9.05729 45.9077 12.4597 47.8511 13.0581 49.6563C14.2879 53.3867 16.768 58.0269 16.768 58.0269H42.9211C42.9211 58.0269 45.4012 53.3794 46.6351 49.6563C47.2294 47.8366 50.6195 45.9077 51.8657 44.3755C52.7634 43.5045 53.5933 42.5804 54.3498 41.6096L54.3662 41.5768Z" fill="#FC8700"/>
<path d="M42.0934 58.0342H17.5676C16.6824 58.0342 15.9648 58.6714 15.9648 59.4575V60.415C15.9648 61.2011 16.6824 61.8383 17.5676 61.8383H42.0934C42.9786 61.8383 43.6962 61.2011 43.6962 60.415V59.4575C43.6962 58.6714 42.9786 58.0342 42.0934 58.0342Z" fill="#FC8700"/>
<path d="M42.0933 62.0233H17.5634C17.0847 62.0223 16.6259 61.8528 16.2878 61.5519C15.9497 61.251 15.7598 60.8434 15.7598 60.4183V59.4575C15.7598 59.0325 15.9497 58.6248 16.2878 58.3239C16.6259 58.023 17.0847 57.8535 17.5634 57.8525H42.0933C42.5724 57.8535 43.0316 58.0229 43.3704 58.3237C43.7092 58.6245 43.9 59.0321 43.9011 59.4575V60.4183C43.9 60.8437 43.7092 61.2514 43.3704 61.5522C43.0316 61.8529 42.5724 62.0223 42.0933 62.0233ZM17.5634 58.2165C17.1934 58.2174 16.8389 58.3486 16.5777 58.5813C16.3164 58.8139 16.1697 59.129 16.1697 59.4575V60.4183C16.1697 60.7468 16.3164 61.0619 16.5777 61.2946C16.8389 61.5272 17.1934 61.6584 17.5634 61.6594H42.0933C42.464 61.6594 42.8196 61.5286 43.0817 61.2959C43.3439 61.0631 43.4912 60.7475 43.4912 60.4183V59.4575C43.4912 59.1284 43.3439 58.8127 43.0817 58.58C42.8196 58.3472 42.464 58.2165 42.0933 58.2165H17.5634Z" fill="#231F20"/>
<path d="M42.0934 61.8408H17.5676C16.6824 61.8408 15.9648 62.4781 15.9648 63.2642V64.2216C15.9648 65.0077 16.6824 65.645 17.5676 65.645H42.0934C42.9786 65.645 43.6962 65.0077 43.6962 64.2216V63.2642C43.6962 62.4781 42.9786 61.8408 42.0934 61.8408Z" fill="#FC8700"/>
<path d="M42.0933 65.8263H17.5634C17.0851 65.8263 16.6263 65.6576 16.288 65.3573C15.9498 65.057 15.7598 64.6497 15.7598 64.225V63.2642C15.7598 62.8391 15.9497 62.4314 16.2878 62.1306C16.6259 61.8297 17.0847 61.6601 17.5634 61.6592H42.0933C42.5724 61.6601 43.0316 61.8295 43.3704 62.1303C43.7092 62.4311 43.9 62.8388 43.9011 63.2642V64.225C43.9 64.65 43.709 65.0573 43.3701 65.3575C43.0312 65.6577 42.572 65.8263 42.0933 65.8263ZM17.5634 62.0231C17.1934 62.0241 16.8389 62.1553 16.5777 62.3879C16.3164 62.6205 16.1697 62.9356 16.1697 63.2642V64.225C16.1697 64.3875 16.2057 64.5484 16.2758 64.6985C16.3458 64.8486 16.4485 64.985 16.5779 65.0999C16.7073 65.2148 16.861 65.306 17.0301 65.3682C17.1992 65.4304 17.3804 65.4624 17.5634 65.4624H42.0933C42.4633 65.4624 42.8183 65.3321 43.0803 65.1002C43.3423 64.8682 43.4901 64.5535 43.4912 64.225V63.2642C43.4912 62.935 43.3439 62.6194 43.0817 62.3866C42.8196 62.1539 42.464 62.0231 42.0933 62.0231H17.5634Z" fill="#231F20"/>
<path d="M42.0934 65.6445H17.5676C16.6824 65.6445 15.9648 66.2818 15.9648 67.0679V68.0253C15.9648 68.8114 16.6824 69.4487 17.5676 69.4487H42.0934C42.9786 69.4487 43.6962 68.8114 43.6962 68.0253V67.0679C43.6962 66.2818 42.9786 65.6445 42.0934 65.6445Z" fill="#FC8700"/>
<path d="M42.0933 69.6337H17.5634C17.0847 69.6327 16.6259 69.4632 16.2878 69.1623C15.9497 68.8614 15.7598 68.4537 15.7598 68.0287V67.0679C15.7598 66.6428 15.9497 66.2352 16.2878 65.9343C16.6259 65.6334 17.0847 65.4639 17.5634 65.4629H42.0933C42.5724 65.4639 43.0316 65.6333 43.3704 65.934C43.7092 66.2348 43.9 66.6425 43.9011 67.0679V68.0287C43.9 68.454 43.7092 68.8617 43.3704 69.1625C43.0316 69.4633 42.5724 69.6327 42.0933 69.6337ZM17.5634 65.8268C17.1934 65.8278 16.8389 65.959 16.5777 66.1916C16.3164 66.4242 16.1697 66.7394 16.1697 67.0679V68.0287C16.1697 68.3572 16.3164 68.6723 16.5777 68.9049C16.8389 69.1376 17.1934 69.2687 17.5634 69.2697H42.0933C42.464 69.2697 42.8196 69.139 43.0817 68.9062C43.3439 68.6735 43.4912 68.3578 43.4912 68.0287V67.0679C43.4912 66.7387 43.3439 66.4231 43.0817 66.1903C42.8196 65.9576 42.464 65.8268 42.0933 65.8268H17.5634Z" fill="#231F20"/>
<path d="M42.0934 69.4512H17.5676C16.6824 69.4512 15.9648 70.0884 15.9648 70.8745V71.8319C15.9648 72.618 16.6824 73.2553 17.5676 73.2553H42.0934C42.9786 73.2553 43.6962 72.618 43.6962 71.8319V70.8745C43.6962 70.0884 42.9786 69.4512 42.0934 69.4512Z" fill="#FC8700"/>
<path d="M42.0933 73.4366H17.5634C17.0847 73.4357 16.6259 73.2662 16.2878 72.9653C15.9497 72.6644 15.7598 72.2567 15.7598 71.8317V70.8709C15.7598 70.4462 15.9498 70.0389 16.288 69.7386C16.6263 69.4382 17.0851 69.2695 17.5634 69.2695H42.0933C42.572 69.2695 43.0312 69.4381 43.3701 69.7383C43.709 70.0385 43.9 70.4458 43.9011 70.8709V71.8317C43.9 72.257 43.7092 72.6647 43.3704 72.9655C43.0316 73.2663 42.5724 73.4357 42.0933 73.4366ZM17.5634 69.6335C17.3804 69.6335 17.1992 69.6655 17.0301 69.7277C16.861 69.7898 16.7073 69.881 16.5779 69.9959C16.4485 70.1108 16.3458 70.2472 16.2758 70.3973C16.2057 70.5475 16.1697 70.7084 16.1697 70.8709V71.8317C16.1697 72.1602 16.3164 72.4753 16.5777 72.7079C16.8389 72.9406 17.1934 73.0717 17.5634 73.0727H42.0933C42.464 73.0727 42.8196 72.942 43.0817 72.7092C43.3439 72.4765 43.4912 72.1608 43.4912 71.8317V70.8709C43.4901 70.5424 43.3423 70.2276 43.0803 69.9957C42.8183 69.7637 42.4633 69.6335 42.0933 69.6335H17.5634Z" fill="#231F20"/>
<path d="M33.5048 78.3673H26.1548C25.2325 78.3682 24.3205 78.1955 23.4789 77.8605C22.6373 77.5255 21.8854 77.0358 21.2726 76.4238L18.0957 73.2539H41.5639L38.387 76.4238C37.7739 77.0355 37.0218 77.5249 36.1803 77.8599C35.3388 78.1948 34.427 78.3678 33.5048 78.3673Z" fill="#383636"/>
<path d="M33.5045 78.5496H26.1545C25.2031 78.5491 24.2625 78.3703 23.3943 78.0247C22.5261 77.6791 21.7499 77.1746 21.1166 76.5443L17.9397 73.3743C17.9137 73.3485 17.8967 73.3165 17.8909 73.2822C17.8851 73.248 17.8906 73.213 17.9069 73.1814C17.9233 73.1492 17.9498 73.1217 17.9832 73.1024C18.0166 73.0831 18.0555 73.0726 18.0954 73.0723H41.5636C41.603 73.0724 41.6415 73.0828 41.6743 73.1022C41.7071 73.1216 41.7328 73.1492 41.7481 73.1814C41.7654 73.2127 41.7715 73.248 41.7657 73.2824C41.7598 73.3169 41.7422 73.349 41.7153 73.3743L38.5384 76.5443C37.906 77.1747 37.1306 77.6793 36.263 78.0249C35.3954 78.3705 34.4554 78.5493 33.5045 78.5496ZM18.534 73.4362L21.4035 76.3041C21.9979 76.8962 22.7267 77.3699 23.542 77.6942C24.3573 78.0185 25.2407 78.186 26.134 78.1856H33.484C34.3773 78.1855 35.2605 78.0178 36.0757 77.6936C36.8909 77.3693 37.6198 76.8958 38.2145 76.3041L41.084 73.4362H18.534Z" fill="#231F20"/>
<path d="M23.1218 46.6176C22.5893 46.6149 22.0582 46.5686 21.5354 46.4793C20.6201 46.3583 19.759 46.0193 19.0436 45.4983C18.3282 44.9772 17.7854 44.2937 17.473 43.5204C16.1084 43.1492 14.85 42.5211 13.7837 41.6789C12.0333 40.3396 12.4637 38.2979 12.7261 37.4936C11.9792 37.1562 11.3226 36.6805 10.8007 36.0984C10.2788 35.5164 9.90373 34.8417 9.70083 34.1198C9.45056 33.3939 9.42073 32.6222 9.61437 31.8828C9.80801 31.1434 10.2182 30.4625 10.8035 29.9091C10.1282 29.1844 9.71145 28.2974 9.60655 27.3615C9.31961 25.3853 11.0372 23.9077 11.7832 23.3581C11.3733 22.7576 10.7666 21.3383 11.9841 19.2747C12.3784 18.5663 12.9782 17.9639 13.7217 17.5296C14.4652 17.0953 15.3257 16.8447 16.2145 16.8036C15.9658 15.6905 16.0149 14.5411 16.358 13.448C17.0672 11.0096 23.9047 8.7168 26.0363 8.8187C27.1293 8.87392 28.1567 9.29999 28.9058 10.0088C28.9439 10.0412 28.9741 10.0802 28.9946 10.1234C29.015 10.1666 29.0253 10.2131 29.0247 10.2599V42.3449C29.0267 42.3691 29.0267 42.3935 29.0247 42.4177C28.9894 42.5916 28.9358 42.7621 28.8648 42.9272C27.7867 45.3438 25.774 46.6176 23.1218 46.6176ZM16.4851 17.5205C15.6967 17.521 14.9242 17.7172 14.2549 18.087C13.5856 18.4568 13.0461 18.9854 12.6974 19.6132C11.361 21.8769 12.5867 23.1398 12.64 23.1944C12.6785 23.2333 12.7072 23.2791 12.7242 23.3287C12.7411 23.3783 12.746 23.4305 12.7384 23.4819C12.732 23.5333 12.7134 23.583 12.6837 23.6276C12.654 23.6721 12.614 23.7105 12.5662 23.7403C12.5416 23.7403 10.1067 25.2433 10.4059 27.2632C10.6519 28.941 11.5865 29.5924 11.6357 29.6179C11.6853 29.6518 11.7255 29.6953 11.7532 29.7452C11.7809 29.795 11.7954 29.8498 11.7955 29.9054C11.7964 29.9604 11.7832 30.0148 11.7569 30.0646C11.7306 30.1144 11.692 30.1583 11.6439 30.1929C11.07 30.6518 10.6559 31.2468 10.4504 31.9077C10.2448 32.5687 10.2564 33.268 10.4838 33.9233C10.6628 34.5909 11.0156 35.212 11.514 35.7366C12.0123 36.2612 12.6423 36.6747 13.3533 36.944C13.4066 36.959 13.456 36.9835 13.4983 37.016C13.5406 37.0486 13.5749 37.0885 13.5992 37.1333C13.6212 37.1787 13.6326 37.2276 13.6326 37.277C13.6326 37.3265 13.6212 37.3754 13.5992 37.4208C13.5992 37.4463 12.5744 39.8046 14.3002 41.1257C15.3128 41.9479 16.5331 42.542 17.8583 42.8581C17.9368 42.8712 18.0092 42.9043 18.0667 42.9534C18.1243 43.0026 18.1644 43.0656 18.1822 43.1347C18.1822 43.222 18.7889 45.271 21.6747 45.7623C24.7287 46.2827 26.9464 45.2091 28.0982 42.6579C28.1441 42.5391 28.1797 42.4175 28.2048 42.2939V10.4128C27.6067 9.89481 26.8173 9.58705 25.983 9.54658C23.9334 9.45924 17.6862 11.7302 17.1328 13.63C16.7666 14.7422 16.7666 15.9243 17.1328 17.0365C17.1604 17.0962 17.1697 17.1614 17.1596 17.2254C17.1495 17.2893 17.1205 17.3497 17.0754 17.4004C17.0323 17.4496 16.9758 17.4881 16.9112 17.5123C16.8466 17.5365 16.7761 17.5456 16.7064 17.5387C16.7064 17.5387 16.6163 17.5205 16.4851 17.5205Z" fill="black"/>
<path d="M15.5391 32.1373C13.2189 32.1373 11.1857 30.2444 11.0955 30.1607C11.021 30.0902 10.9811 29.9963 10.9846 29.8997C10.988 29.8031 11.0346 29.7117 11.1139 29.6455C11.1933 29.5794 11.299 29.544 11.4078 29.5471C11.5166 29.5501 11.6195 29.5915 11.694 29.6619C11.694 29.6801 13.7436 31.5476 15.7686 31.402C15.8225 31.3982 15.8766 31.4038 15.928 31.4186C15.9794 31.4333 16.027 31.4569 16.0681 31.488C16.1092 31.5191 16.143 31.5571 16.1676 31.5998C16.1922 31.6425 16.207 31.6891 16.2113 31.7369C16.2157 31.7847 16.2093 31.8328 16.1927 31.8784C16.1761 31.9241 16.1495 31.9663 16.1145 32.0029C16.0795 32.0394 16.0367 32.0694 15.9886 32.0912C15.9405 32.113 15.8881 32.1262 15.8342 32.1301L15.5391 32.1373Z" fill="black"/>
<path d="M20.6869 26.6622C20.1718 26.6606 19.6592 26.5994 19.162 26.4802C15.5915 25.6395 15.2226 21.9892 15.2103 21.8327C15.2016 21.7362 15.2364 21.6405 15.3072 21.5668C15.3779 21.4931 15.4787 21.4474 15.5874 21.4396C15.6961 21.4319 15.8039 21.4629 15.8869 21.5256C15.9699 21.5884 16.0214 21.6779 16.0301 21.7745C16.0301 21.9091 16.3704 25.0499 19.3792 25.7778C20.2502 25.9894 21.1709 25.9773 22.0344 25.7428C22.8979 25.5083 23.6687 25.0611 24.2573 24.4531C24.2904 24.4153 24.3316 24.3837 24.3784 24.3601C24.4253 24.3364 24.477 24.3212 24.5304 24.3153C24.5839 24.3094 24.6382 24.3129 24.6902 24.3256C24.7421 24.3383 24.7907 24.36 24.8333 24.3894C24.8758 24.4188 24.9114 24.4553 24.938 24.4969C24.9646 24.5385 24.9818 24.5844 24.9884 24.6319C24.9951 24.6793 24.9911 24.7275 24.9768 24.7736C24.9625 24.8198 24.9381 24.863 24.905 24.9007C24.3837 25.4441 23.7378 25.8823 23.0103 26.1861C22.2829 26.4899 21.4907 26.6522 20.6869 26.6622Z" fill="black"/>
<path d="M17.6326 29.8877H17.3005C17.1918 29.8877 17.0876 29.8494 17.0107 29.7811C16.9338 29.7128 16.8906 29.6202 16.8906 29.5237C16.8906 29.4743 16.9018 29.4254 16.9237 29.38C16.9455 29.3346 16.9776 29.2937 17.0178 29.2596C17.0581 29.2256 17.1057 29.1991 17.1579 29.182C17.21 29.1648 17.2655 29.1572 17.321 29.1596C18.4606 29.2106 19.3256 28.974 19.8913 28.4534C20.7849 27.6307 20.6742 26.3493 20.6742 26.3348C20.6696 26.287 20.6757 26.2388 20.6921 26.1931C20.7085 26.1474 20.7348 26.105 20.7697 26.0683C20.8045 26.0316 20.8471 26.0014 20.8951 25.9793C20.9431 25.9573 20.9955 25.9439 21.0493 25.9398C21.1031 25.9357 21.1573 25.9411 21.2088 25.9557C21.2603 25.9702 21.3081 25.9936 21.3494 26.0245C21.3907 26.0555 21.4247 26.0933 21.4495 26.1359C21.4744 26.1785 21.4895 26.2251 21.4941 26.2729C21.4941 26.3384 21.6416 27.8892 20.4898 28.9522C20.1115 29.2741 19.6625 29.5233 19.1709 29.6843C18.6793 29.8452 18.1557 29.9145 17.6326 29.8877Z" fill="black"/>
<path d="M22.565 22.3502C22.4674 22.3514 22.3724 22.3217 22.2973 22.2663C22.2221 22.2109 22.1717 22.1335 22.1551 22.0481C21.2738 17.6371 16.9245 17.5316 16.74 17.5316C16.6313 17.5316 16.527 17.4932 16.4501 17.425C16.3733 17.3567 16.3301 17.2642 16.3301 17.1677C16.3301 17.0711 16.3733 16.9786 16.4501 16.9103C16.527 16.8421 16.6313 16.8037 16.74 16.8037C16.7933 16.8037 21.9542 16.9056 22.9545 21.9207C22.9639 21.9678 22.9628 22.0161 22.9512 22.0628C22.9396 22.1095 22.9178 22.1537 22.887 22.1929C22.8561 22.2321 22.8169 22.2655 22.7715 22.2913C22.7261 22.317 22.6755 22.3345 22.6224 22.3429L22.565 22.3502Z" fill="black"/>
<path d="M23.4301 42.2904C23.3213 42.2904 23.2171 42.252 23.1402 42.1838C23.0633 42.1155 23.0201 42.0229 23.0201 41.9264C22.9382 37.2243 17.8264 37.086 17.6091 37.0824C17.5004 37.0824 17.3962 37.044 17.3193 36.9758C17.2424 36.9075 17.1992 36.815 17.1992 36.7184C17.1992 36.6219 17.2424 36.5293 17.3193 36.4611C17.3962 36.3928 17.5004 36.3545 17.6091 36.3545C17.6706 36.3545 23.7334 36.5037 23.8277 41.9119C23.8277 42.0084 23.7845 42.101 23.7076 42.1692C23.6308 42.2375 23.5265 42.2758 23.4178 42.2758L23.4301 42.2904Z" fill="black"/>
<path d="M19.6584 37.4538C19.5577 37.4544 19.4603 37.4222 19.3847 37.3631C19.3091 37.304 19.2606 37.2223 19.2485 37.1335C19.2485 37.0826 18.564 31.8455 24.5202 31.1613C24.6289 31.1487 24.7387 31.175 24.8256 31.2344C24.9125 31.2938 24.9692 31.3814 24.9834 31.4779C24.9975 31.5744 24.9679 31.672 24.901 31.7491C24.8341 31.8262 24.7354 31.8766 24.6267 31.8891C19.4863 32.4787 20.0356 36.8606 20.0643 37.0462C20.0712 37.0938 20.0674 37.1421 20.0532 37.1884C20.0389 37.2346 20.0146 37.2779 19.9814 37.3158C19.9483 37.3537 19.907 37.3854 19.86 37.4091C19.8131 37.4328 19.7613 37.448 19.7076 37.4538H19.6584Z" fill="black"/>
<path d="M28.6318 19.2238C28.5272 19.224 28.4265 19.1887 28.3503 19.125C28.2741 19.0614 28.2282 18.9744 28.2219 18.8816C28.2219 18.827 28.0989 17.7604 26.1436 17.3163C26.0879 17.3076 26.0348 17.2887 25.9877 17.2609C25.9406 17.2331 25.9004 17.197 25.8698 17.1547C25.8392 17.1124 25.8188 17.065 25.8099 17.0154C25.8009 16.9658 25.8036 16.9151 25.8178 16.8665C25.832 16.8179 25.8573 16.7724 25.8923 16.7329C25.9272 16.6934 25.971 16.6607 26.0209 16.637C26.0707 16.6132 26.1256 16.5989 26.182 16.5949C26.2384 16.5909 26.2951 16.5973 26.3485 16.6137C28.931 17.1962 29.0376 18.7761 29.0417 18.8452C29.0417 18.9418 28.9985 19.0344 28.9217 19.1026C28.8448 19.1709 28.7405 19.2093 28.6318 19.2093V19.2238Z" fill="black"/>
<path d="M23.0202 13.2558C22.963 13.2557 22.9064 13.2449 22.8542 13.2243C22.8019 13.2036 22.7552 13.1734 22.7168 13.1357C20.8927 11.3374 18.798 11.9926 18.7078 12.0217C18.6056 12.0545 18.4929 12.0499 18.3945 12.009C18.2961 11.968 18.2201 11.8941 18.1831 11.8033C18.1459 11.713 18.1505 11.6134 18.1958 11.5261C18.2412 11.4388 18.3235 11.3709 18.4249 11.3374C18.5315 11.301 21.1222 10.4746 23.344 12.6479C23.3804 12.6836 23.4084 12.7254 23.4264 12.7708C23.4445 12.8162 23.4522 12.8643 23.4491 12.9124C23.4461 12.9605 23.4323 13.0076 23.4087 13.0509C23.385 13.0942 23.3519 13.1329 23.3112 13.1648C23.2313 13.2276 23.1268 13.2603 23.0202 13.2558Z" fill="black"/>
<path d="M18.4326 37.0904C18.3293 37.0907 18.2298 37.0563 18.1538 36.9942C18.0778 36.9322 18.0309 36.8469 18.0227 36.7555C17.9709 36.3848 17.8119 36.0324 17.5612 35.7326C17.3105 35.4328 16.9766 35.1957 16.592 35.0445C16.4915 35.0078 16.4115 34.9372 16.3696 34.8481C16.3277 34.759 16.3273 34.6588 16.3686 34.5695C16.41 34.4801 16.4895 34.4091 16.5898 34.3719C16.6902 34.3347 16.803 34.3344 16.9036 34.3711C17.4272 34.5734 17.8816 34.8946 18.2212 35.3022C18.5608 35.7099 18.7737 36.1897 18.8384 36.6936C18.8475 36.7896 18.8134 36.8849 18.7434 36.9586C18.6735 37.0323 18.5735 37.0784 18.4654 37.0867L18.4326 37.0904Z" fill="black"/>
<path d="M36.5388 46.6175C33.8866 46.6175 31.8739 45.3437 30.7999 42.9272C30.7324 42.7614 30.6803 42.591 30.6441 42.4176C30.6421 42.3934 30.6421 42.3691 30.6441 42.3448V10.2599C30.6445 10.1662 30.6856 10.0762 30.7589 10.0087C31.5143 9.29726 32.5491 8.87112 33.6488 8.81865C35.764 8.73495 42.618 11.0023 43.3271 13.448C43.6661 14.5417 43.7152 15.6902 43.4706 16.8035C44.3592 16.8453 45.2193 17.0963 45.9627 17.5305C46.7061 17.9647 47.3061 18.5667 47.701 19.2747C48.9308 21.3382 48.3036 22.7576 47.8978 23.3581C48.648 23.9003 50.3574 25.3779 50.0786 27.3614C49.976 28.2985 49.5574 29.1864 48.8775 29.909C49.4646 30.4615 49.8763 31.1422 50.0708 31.8818C50.2652 32.6215 50.2353 33.3937 49.9843 34.1198C49.7799 34.841 49.4043 35.5152 48.8825 36.097C48.3608 36.6789 47.705 37.155 46.9591 37.4935C47.2173 38.2978 47.6518 40.3395 45.9015 41.6788C44.8352 42.5211 43.5768 43.1492 42.2122 43.5204C41.8989 44.2932 41.3559 44.9763 40.6407 45.4973C39.9255 46.0182 39.0647 46.3575 38.1498 46.4792C37.6188 46.5695 37.0795 46.6158 36.5388 46.6175ZM31.4393 42.3085C31.4622 42.4324 31.4979 42.5542 31.5459 42.6724C32.6937 45.22 34.9196 46.3118 37.9694 45.7768C40.8758 45.2818 41.4579 43.171 41.462 43.1492C41.4798 43.0801 41.5199 43.0171 41.5774 42.9679C41.6349 42.9188 41.7074 42.8857 41.7858 42.8726C43.1081 42.5526 44.3261 41.9589 45.3399 41.1402C47.0698 39.8191 46.0572 37.4608 46.0449 37.4353C46.023 37.3899 46.0116 37.341 46.0116 37.2915C46.0116 37.2421 46.023 37.1932 46.0449 37.1478C46.0688 37.1034 46.1025 37.0637 46.144 37.0312C46.1856 36.9986 46.2342 36.9739 46.2868 36.9585C46.3729 36.9331 48.4102 36.3071 49.1563 33.9378C49.3857 33.2827 49.3983 32.5828 49.1927 31.9215C48.987 31.2602 48.5717 30.6653 47.9962 30.2074C47.9475 30.1724 47.9086 30.128 47.8823 30.0775C47.856 30.027 47.8431 29.9719 47.8445 29.9163C47.8458 29.861 47.8612 29.8067 47.8896 29.7575C47.918 29.7084 47.9587 29.6656 48.0085 29.6324C48.0454 29.6069 48.9841 28.9555 49.2383 27.2777C49.5334 25.2506 47.1067 23.7693 47.0821 23.7548C47.0328 23.7256 46.9912 23.6872 46.9602 23.6424C46.9292 23.5976 46.9095 23.5473 46.9025 23.4951C46.8955 23.4429 46.9013 23.3899 46.9196 23.3399C46.9378 23.2898 46.9681 23.2439 47.0083 23.2052C47.0616 23.1543 48.2831 21.8914 46.9509 19.6277C46.5846 18.9716 46.0105 18.4247 45.299 18.0542C44.5876 17.6838 43.7697 17.5058 42.9459 17.5423C42.8765 17.5481 42.8066 17.5382 42.7428 17.5133C42.6789 17.4885 42.6233 17.4496 42.5811 17.4004C42.536 17.3497 42.5069 17.2893 42.4969 17.2253C42.4868 17.1613 42.496 17.0962 42.5237 17.0364C42.8899 15.9242 42.8899 14.7422 42.5237 13.6299C42.2777 12.8002 40.8225 11.7593 38.6212 10.8422C36.752 10.0633 34.6163 9.5065 33.6734 9.54653C32.8389 9.58601 32.0491 9.89392 31.4516 10.4127L31.4393 42.3085Z" fill="black"/>
<path d="M44.1229 32.1371H43.8278C43.7739 32.1335 43.7213 32.1203 43.6732 32.0986C43.625 32.0768 43.5821 32.0468 43.5471 32.0102C43.512 31.9737 43.4855 31.9314 43.4689 31.8857C43.4524 31.84 43.4461 31.7918 43.4506 31.744C43.4548 31.6961 43.4695 31.6495 43.4941 31.6067C43.5186 31.5639 43.5524 31.5259 43.5935 31.4947C43.6347 31.4636 43.6823 31.44 43.7338 31.4253C43.7853 31.4106 43.8395 31.4051 43.8933 31.4091C45.943 31.5583 47.9475 29.6872 47.968 29.669C48.0421 29.5987 48.1444 29.5574 48.2528 29.5539C48.3611 29.5505 48.4665 29.5854 48.546 29.6508C48.5844 29.6846 48.6149 29.7249 48.6357 29.7693C48.6565 29.8136 48.6672 29.8612 48.6672 29.9093C48.6672 29.9573 48.6565 30.0049 48.6357 30.0493C48.6149 30.0936 48.5844 30.1339 48.546 30.1677C48.4599 30.2442 46.4431 32.1371 44.1229 32.1371Z" fill="black"/>
<path d="M38.9744 26.6622C38.1712 26.6521 37.3797 26.4898 36.6529 26.186C35.9261 25.8822 35.2809 25.444 34.7604 24.9007C34.7273 24.863 34.7029 24.8198 34.6886 24.7736C34.6743 24.7275 34.6703 24.6793 34.677 24.6319C34.6836 24.5844 34.7008 24.5385 34.7274 24.4969C34.754 24.4553 34.7896 24.4188 34.8321 24.3894C34.8747 24.36 34.9233 24.3383 34.9752 24.3256C35.0272 24.3129 35.0815 24.3094 35.135 24.3153C35.1884 24.3212 35.2401 24.3364 35.2869 24.3601C35.3338 24.3837 35.375 24.4153 35.4081 24.4531C35.9954 25.0625 36.7662 25.5107 37.6301 25.7453C38.494 25.98 39.4153 25.9912 40.2862 25.7778C43.295 25.0499 43.623 21.9091 43.6353 21.7745C43.6396 21.7267 43.6544 21.6801 43.679 21.6374C43.7036 21.5947 43.7374 21.5567 43.7785 21.5256C43.8196 21.4946 43.8672 21.471 43.9186 21.4562C43.97 21.4414 44.0241 21.4358 44.078 21.4396C44.1318 21.4435 44.1843 21.4567 44.2323 21.4785C44.2804 21.5003 44.3232 21.5303 44.3582 21.5668C44.3932 21.6033 44.4198 21.6456 44.4364 21.6912C44.4531 21.7368 44.4594 21.7849 44.4551 21.8327C44.4551 21.9892 44.0739 25.6395 40.5034 26.4802C40.0048 26.5993 39.4908 26.6605 38.9744 26.6622Z" fill="black"/>
<path d="M42.0244 29.8882C41.4987 29.9157 40.9722 29.8462 40.4783 29.6839C39.9844 29.5216 39.5338 29.2701 39.1549 28.9453C38.4355 28.2047 38.0745 27.2418 38.1506 26.266C38.1552 26.2182 38.1703 26.1717 38.1951 26.1291C38.22 26.0865 38.254 26.0486 38.2953 26.0177C38.3366 25.9868 38.3844 25.9634 38.4359 25.9488C38.4873 25.9343 38.5415 25.9289 38.5954 25.933C38.6492 25.937 38.7016 25.9505 38.7496 25.9725C38.7976 25.9946 38.8402 26.0248 38.875 26.0615C38.9099 26.0981 38.9362 26.1405 38.9526 26.1863C38.969 26.232 38.975 26.2801 38.9705 26.3279C38.9173 27.097 39.1974 27.855 39.7534 28.4466C40.3191 28.9672 41.1799 29.2038 42.3236 29.1528C42.4324 29.1528 42.5366 29.1912 42.6135 29.2594C42.6904 29.3277 42.7336 29.4203 42.7336 29.5168C42.7337 29.6103 42.6933 29.7003 42.6208 29.768C42.5483 29.8358 42.4493 29.8762 42.3441 29.8809L42.0244 29.8882Z" fill="black"/>
<path d="M37.0917 22.3497H37.022C36.969 22.3414 36.9183 22.3238 36.8729 22.2981C36.8275 22.2724 36.7883 22.2389 36.7574 22.1997C36.7266 22.1605 36.7048 22.1163 36.6932 22.0696C36.6816 22.0229 36.6805 21.9746 36.6899 21.9275C37.6902 16.9124 42.8388 16.8105 42.9003 16.8105C43.009 16.8105 43.1133 16.8489 43.1902 16.9171C43.267 16.9854 43.3102 17.078 43.3102 17.1745C43.3102 17.271 43.267 17.3636 43.1902 17.4318C43.1133 17.5001 43.009 17.5384 42.9003 17.5384C42.7117 17.5384 38.3665 17.644 37.4852 22.0549C37.4674 22.1366 37.4187 22.2104 37.3471 22.264C37.2755 22.3177 37.1853 22.3479 37.0917 22.3497Z" fill="black"/>
<path d="M36.2322 42.2905C36.1235 42.2905 36.0192 42.2521 35.9423 42.1839C35.8655 42.1156 35.8223 42.023 35.8223 41.9265C35.9165 36.5184 41.9711 36.3691 42.0367 36.3691C42.1454 36.3691 42.2497 36.4075 42.3266 36.4757C42.4035 36.544 42.4466 36.6366 42.4466 36.7331C42.4466 36.8296 42.4035 36.9222 42.3266 36.9904C42.2497 37.0587 42.1454 37.097 42.0367 37.097C41.8195 37.097 36.7077 37.239 36.6257 41.9411C36.6217 42.0326 36.5789 42.1194 36.506 42.1841C36.433 42.2489 36.3353 42.2869 36.2322 42.2905Z" fill="black"/>
<path d="M39.9983 37.4538H39.9491C39.8955 37.448 39.8437 37.4328 39.7967 37.4091C39.7497 37.3854 39.7085 37.3537 39.6753 37.3158C39.6422 37.2779 39.6178 37.2346 39.6036 37.1884C39.5894 37.1421 39.5856 37.0938 39.5925 37.0462C39.6171 36.8606 40.1705 32.4787 35.03 31.8891C34.9762 31.8829 34.9243 31.8674 34.8772 31.8433C34.8301 31.8193 34.7889 31.7873 34.7558 31.7491C34.6889 31.672 34.6592 31.5744 34.6734 31.4779C34.6875 31.3814 34.7443 31.2938 34.8311 31.2344C34.918 31.175 35.0279 31.1487 35.1366 31.1613C41.0805 31.8564 40.4123 37.0826 40.4041 37.1335C40.3921 37.2217 40.3442 37.3029 40.2695 37.3619C40.1948 37.4209 40.0983 37.4536 39.9983 37.4538Z" fill="black"/>
<path d="M31.0291 19.2249C30.9203 19.2249 30.8161 19.1866 30.7392 19.1183C30.6623 19.05 30.6191 18.9574 30.6191 18.8609C30.6191 18.7917 30.7298 17.2118 33.3123 16.6294C33.4132 16.6154 33.5163 16.6353 33.6015 16.6853C33.6867 16.7352 33.7478 16.8116 33.7729 16.8995C33.798 16.9873 33.7853 17.0803 33.7373 17.1603C33.6893 17.2403 33.6094 17.3015 33.5132 17.3319C31.5169 17.787 31.439 18.8827 31.439 18.8936C31.4298 18.9844 31.3825 19.0688 31.3066 19.1301C31.2307 19.1915 31.1317 19.2253 31.0291 19.2249Z" fill="black"/>
<path d="M36.6375 13.2555C36.5583 13.2553 36.4808 13.2348 36.4145 13.1963C36.3481 13.1579 36.2958 13.1032 36.2637 13.0389C36.2316 12.9746 36.2212 12.9034 36.2337 12.834C36.2462 12.7645 36.2811 12.6997 36.3341 12.6475C38.5395 10.4633 41.1261 11.3006 41.2532 11.337C41.3039 11.3536 41.3504 11.379 41.3901 11.4116C41.4297 11.4442 41.4617 11.4835 41.4841 11.5271C41.5066 11.5708 41.5192 11.6179 41.521 11.6659C41.5229 11.7139 41.5141 11.7617 41.4951 11.8066C41.4764 11.8516 41.4478 11.8929 41.4111 11.9281C41.3743 11.9633 41.3301 11.9917 41.281 12.0117C41.2318 12.0316 41.1787 12.0428 41.1247 12.0444C41.0707 12.0461 41.0169 12.0383 40.9663 12.0214C40.8802 11.9923 38.7814 11.337 36.9613 13.1353C36.9207 13.1754 36.8706 13.207 36.8146 13.2277C36.7586 13.2485 36.6981 13.258 36.6375 13.2555Z" fill="black"/>
<path d="M41.2278 37.0861H41.1909C41.0828 37.0778 40.9828 37.0317 40.9129 36.958C40.8429 36.8843 40.8088 36.789 40.8178 36.693C40.8814 36.1893 41.0933 35.7094 41.4323 35.3017C41.7713 34.8939 42.2253 34.5727 42.7486 34.3705C42.7986 34.3521 42.8523 34.3427 42.9064 34.3428C42.9606 34.3429 43.0142 34.3525 43.0641 34.3712C43.114 34.3898 43.1593 34.417 43.1973 34.4512C43.2353 34.4855 43.2653 34.5261 43.2856 34.5707C43.3262 34.66 43.3252 34.76 43.2829 34.8487C43.2407 34.9374 43.1606 35.0076 43.0601 35.0439C42.6757 35.1947 42.342 35.4317 42.0919 35.7317C41.8417 36.0317 41.6838 36.3843 41.6336 36.7549C41.6244 36.845 41.5778 36.9289 41.5027 36.9901C41.4277 37.0514 41.3297 37.0856 41.2278 37.0861Z" fill="black"/>
</svg>
