<svg width="124" height="57" viewBox="0 0 124 57" fill="none" xmlns="http://www.w3.org/2000/svg">
<path d="M24.5011 7.70657L38.4786 9.41383C38.4786 9.41383 53.7316 5.27344 55.3471 5.27344C56.9627 5.27344 63.7781 12.6019 63.7781 12.6019C63.7781 12.6019 94.1009 33.4722 95.1735 35.2201C96.2462 36.968 95.1736 42.6299 88.175 41.5149C88.175 41.5149 88.175 45.8934 85.3036 46.5322C83.5868 46.9203 81.7878 46.9203 80.071 46.5322C80.071 46.5322 79.901 49.9235 76.4933 50.719C73.0856 51.5146 71.8166 50.5158 71.8166 50.5158C71.8166 50.5158 69.8021 55.2659 66.0347 54.3078C62.2672 53.3496 58.3951 50.4113 56.2236 48.6575C54.0521 46.9038 37.3471 36.1783 37.3471 36.1783L16.9531 34.924L24.5011 7.70657Z" fill="#FC8700"/>
<path d="M67.0885 55.0217C66.683 55.0212 66.2798 54.9684 65.8915 54.8649C63.007 54.1332 59.7236 52.2459 55.845 49.0579C53.8827 47.4377 38.8391 37.7923 37.1778 36.718L16.9015 35.4521C16.807 35.446 16.715 35.4217 16.6321 35.3809C16.5491 35.3401 16.4771 35.2837 16.4211 35.2158C16.3651 35.1479 16.3265 35.0699 16.3078 34.9874C16.2891 34.9048 16.2908 34.8197 16.3129 34.7378L23.8478 7.56685C23.8853 7.42629 23.9805 7.3032 24.1147 7.2216C24.2489 7.13999 24.4126 7.10573 24.5738 7.12551L38.4074 8.82116C40.5135 8.24046 53.6996 4.69238 55.3282 4.69238C56.9569 4.69238 62.0783 9.91868 64.2171 12.1834C69.4496 15.7721 94.651 33.1815 95.7302 34.941C96.4432 36.1024 96.3843 38.4252 94.9715 40.1093C94.1997 41.0674 92.3879 42.5424 88.7775 42.1824C88.6467 43.5354 88.058 46.5144 85.4482 47.0951C83.8773 47.4429 82.2413 47.4923 80.6474 47.2403C80.4896 48.1838 80.0315 49.0677 79.327 49.7879C78.6224 50.508 77.7008 51.0344 76.6706 51.3052C74.3683 51.8394 72.9293 51.6129 72.1444 51.3458C71.5231 52.513 69.8356 55.0217 67.0885 55.0217ZM17.7715 34.372L37.4525 35.5972C37.5748 35.6066 37.6922 35.6447 37.7926 35.7076C38.4467 36.1431 54.5695 46.4796 56.7607 48.2333C60.4823 51.2645 63.6023 53.0705 66.2839 53.7499C69.43 54.5513 71.2614 50.3528 71.2811 50.3122C71.3179 50.2243 71.3782 50.1456 71.4568 50.0829C71.5354 50.0202 71.63 49.9753 71.7324 49.9521C71.8358 49.9287 71.9441 49.9281 72.0478 49.9504C72.1516 49.9726 72.2476 50.0171 72.3276 50.0799C72.3276 50.0799 73.4526 50.8464 76.3959 50.1554C79.3392 49.4644 79.4831 46.6247 79.4897 46.5028C79.4949 46.4141 79.523 46.3277 79.5718 46.2502C79.6205 46.1727 79.6886 46.1061 79.7709 46.0556C79.853 46.0054 79.9469 45.9725 80.0456 45.9594C80.1442 45.9463 80.2449 45.9534 80.3399 45.9802C81.9319 46.3267 83.5946 46.3267 85.1866 45.9802C87.1488 45.5504 87.5609 42.6179 87.5674 41.5262C87.5673 41.4409 87.5883 41.3566 87.629 41.2793C87.6697 41.202 87.7291 41.1337 87.8029 41.0791C87.876 41.026 87.9613 40.9876 88.0527 40.9665C88.1442 40.9455 88.2397 40.9422 88.3327 40.9571C90.8901 41.3636 92.8393 40.841 93.9708 39.4415C95.1023 38.042 95.0893 36.236 94.6249 35.5101C93.7419 34.2094 75.4671 21.3759 63.3995 13.0719C63.3616 13.0458 63.3266 13.0167 63.2948 12.9848C60.188 9.64575 56.2701 5.97573 55.3544 5.8654C54.2621 5.8654 44.5491 8.39144 38.6887 9.98256C38.596 10.0007 38.5 10.0007 38.4074 9.98256L25.012 8.34499L17.7715 34.372Z" fill="black"/>
<path d="M42.121 35.9928C43.6681 34.7337 43.7736 32.6005 42.3566 31.2281C40.9397 29.8557 38.5368 29.7639 36.9897 31.0229L31.956 35.1195C30.4089 36.3786 30.3033 38.5118 31.7203 39.8842C33.1373 41.2566 35.5401 41.3485 37.0873 40.0894L42.121 35.9928Z" fill="#FC8700"/>
<path d="M34.528 41.5559C33.9131 41.5549 33.305 41.4408 32.7422 41.221C32.1794 41.0011 31.6739 40.6801 31.2576 40.2783C30.4598 39.5051 30.0406 38.4822 30.0921 37.4346C30.1436 36.3871 30.6617 35.4005 31.5323 34.692L36.5752 30.5922C36.9953 30.1988 37.5019 29.8863 38.0638 29.6741C38.6256 29.4619 39.2305 29.3545 39.8411 29.3585C40.4516 29.3626 41.0547 29.478 41.6128 29.6977C42.171 29.9174 42.6723 30.2366 43.0857 30.6355C43.4991 31.0344 43.8157 31.5045 44.0158 32.0166C44.216 32.5288 44.2954 33.0719 44.2491 33.6124C44.2029 34.1529 44.032 34.6792 43.7471 35.1586C43.4621 35.638 43.0692 36.0603 42.5927 36.3992L37.5498 40.5048C36.7279 41.181 35.6485 41.5565 34.528 41.5559ZM32.2126 39.4944C32.7767 40.039 33.5613 40.3626 34.3939 40.3941C35.2265 40.4257 36.0393 40.1627 36.6537 39.6628L41.6901 35.563C42.0143 35.3205 42.28 35.0222 42.4712 34.6862C42.6623 34.3501 42.775 33.9832 42.8024 33.6076C42.8299 33.2319 42.7715 32.8552 42.6307 32.5C42.49 32.1449 42.2699 31.8187 41.9836 31.541C41.6973 31.2633 41.3507 31.0399 40.9647 30.8841C40.5786 30.7283 40.1611 30.6435 39.7372 30.6346C39.3133 30.6257 38.8917 30.693 38.4978 30.8324C38.104 30.9718 37.7459 31.1805 37.4451 31.4459L32.4022 35.5514C31.7888 36.0523 31.4244 36.7488 31.3888 37.4881C31.3532 38.2273 31.6495 38.9489 32.2126 39.4944Z" fill="black"/>
<path d="M49.4432 39.4206C50.9903 38.1615 51.0959 36.0282 49.6789 34.6558C48.262 33.2834 45.8591 33.1916 44.312 34.4507L36.8289 40.5406C35.2818 41.7997 35.1763 43.9329 36.5932 45.3053C38.0102 46.6777 40.413 46.7695 41.9602 45.5105L49.4432 39.4206Z" fill="#FC8700"/>
<path d="M39.4083 46.979H39.2121C38.3322 46.9451 37.4834 46.6803 36.773 46.2183C36.0626 45.7562 35.5224 45.1175 35.2207 44.3829C34.919 43.6483 34.8693 42.8508 35.078 42.0912C35.2867 41.3316 35.7443 40.6439 36.393 40.1151L43.8821 34.0236C44.3047 33.6409 44.8105 33.3385 45.3689 33.1349C45.9273 32.9313 46.5265 32.8308 47.13 32.8394C47.7336 32.848 48.3288 32.9656 48.8795 33.185C49.4302 33.4044 49.9249 33.7211 50.3333 34.1157C50.7418 34.5103 51.0555 34.9745 51.2553 35.4802C51.4552 35.9859 51.537 36.5224 51.4958 37.0571C51.4546 37.5918 51.2913 38.1134 51.0157 38.5902C50.7402 39.067 50.3582 39.4891 49.893 39.8306L42.4105 45.957C41.59 46.6206 40.5181 46.9855 39.4083 46.979ZM46.8843 34.1455C46.0996 34.1452 45.3434 34.4063 44.7651 34.8772L37.276 40.9688C36.8188 41.3407 36.4956 41.8242 36.347 42.3586C36.1984 42.893 36.2309 43.4546 36.4406 43.9726C36.6502 44.4907 37.0276 44.9422 37.5254 45.2705C38.0231 45.5987 38.619 45.7891 39.2382 45.8176C39.6523 45.8357 40.0663 45.7802 40.456 45.6546C40.8457 45.529 41.2033 45.3357 41.5078 45.0859L49.01 38.9886C49.476 38.6081 49.8017 38.1116 49.9448 37.5641C50.0878 37.0166 50.0415 36.4435 49.8119 35.9198C49.5823 35.396 49.1801 34.9459 48.6577 34.6284C48.1354 34.3108 47.5174 34.1405 46.8843 34.1397V34.1455Z" fill="black"/>
<path d="M62.581 48.0322C64.1112 46.7569 64.1882 44.6227 62.753 43.2654C61.3178 41.908 58.9138 41.8415 57.3836 43.1168L49.9825 49.2851C48.4523 50.5604 48.3754 52.6946 49.8106 54.0519C51.2458 55.4093 53.6497 55.4758 55.1799 54.2005L62.581 48.0322Z" fill="#FC8700"/>
<path d="M52.5869 55.6955H52.443C51.8584 55.6805 51.283 55.5629 50.7498 55.3497C50.2166 55.1364 49.7361 54.8316 49.3362 54.4528C48.5301 53.6879 48.0982 52.6706 48.135 51.6237C48.1718 50.5767 48.6742 49.5853 49.5324 48.8665L56.9365 42.6936C57.805 42.0192 58.9344 41.6704 60.0869 41.7206C61.2394 41.7707 62.3249 42.216 63.115 42.9626C63.9051 43.7092 64.338 44.6989 64.3226 45.7232C64.3072 46.7475 63.8447 47.7266 63.0324 48.4542L55.6283 54.627C54.8053 55.3147 53.7171 55.697 52.5869 55.6955ZM59.9844 42.7865C59.185 42.7858 58.4154 43.0558 57.8326 43.5414L50.4285 49.7085C49.8219 50.2167 49.4669 50.9176 49.4412 51.6577C49.4154 52.3978 49.721 53.1168 50.2911 53.6572C50.8624 54.1954 51.6507 54.5104 52.4833 54.5333C53.3158 54.5561 54.1246 54.285 54.7322 53.7792L62.1363 47.6122C62.5945 47.2287 62.9125 46.7321 63.0493 46.1864C63.186 45.6408 63.1352 45.0712 62.9035 44.5515C62.6717 44.0318 62.2696 43.5857 61.7492 43.2711C61.2288 42.9564 60.6141 42.7876 59.9844 42.7865Z" fill="black"/>
<path d="M56.649 43.288C58.1449 41.9811 58.1652 39.8459 56.6944 38.5189C55.2236 37.1919 52.8186 37.1757 51.3226 38.4827L42.7866 45.9405C41.2907 47.2474 41.2703 49.3826 42.7411 50.7096C44.212 52.0366 46.617 52.0528 48.1129 50.7458L56.649 43.288Z" fill="#FC8700"/>
<path d="M45.465 52.2981H45.4323C44.8483 52.2994 44.2699 52.1974 43.7308 51.9979C43.1918 51.7985 42.7029 51.5058 42.2927 51.1367C41.4665 50.3892 41.0079 49.3812 41.0177 48.3339C41.0275 47.2866 41.5049 46.2856 42.345 45.5504L50.8807 38.0884C51.2921 37.7036 51.7866 37.3962 52.3346 37.1846C52.8826 36.973 53.473 36.8614 54.0706 36.8566C54.6682 36.8518 55.2607 36.9537 55.813 37.1565C56.3653 37.3592 56.8659 37.6585 57.2852 38.0366C57.7045 38.4147 58.0338 38.8638 58.2535 39.3572C58.4732 39.8506 58.5788 40.3782 58.564 40.9087C58.5493 41.4391 58.4144 41.9614 58.1676 42.4446C57.9207 42.9278 57.5669 43.3619 57.1271 43.7212L48.6241 51.1832C48.2058 51.5441 47.7115 51.8283 47.1695 52.0196C46.6274 52.2109 46.0482 52.3056 45.465 52.2981ZM54.0071 38.0942C53.1802 38.093 52.386 38.3809 51.7964 38.8956L43.2934 46.3576C42.8488 46.744 42.5435 47.2391 42.4164 47.7798C42.2892 48.3206 42.3459 48.8828 42.5793 49.3949C42.8127 49.907 43.2122 50.346 43.7272 50.6561C44.2421 50.9662 44.8493 51.1335 45.4715 51.1367C46.304 51.1369 47.1039 50.8495 47.7019 50.3353L56.2441 42.8734C56.5379 42.6164 56.7719 42.3106 56.9326 41.9733C57.0933 41.6361 57.1775 41.2741 57.1806 40.9079C57.1836 40.5417 57.1054 40.1786 56.9503 39.8393C56.7952 39.5 56.5663 39.1911 56.2768 38.9304C55.9885 38.667 55.6439 38.4573 55.2631 38.3137C54.8824 38.1701 54.4732 38.0955 54.0595 38.0942H54.0071Z" fill="black"/>
<path d="M102.722 6.23181C102.722 6.23181 87.6782 8.2991 85.4936 7.97391C83.309 7.64872 68.9783 1.77203 65.7603 0.813879C62.5423 -0.144276 56.4267 2.28305 53.5553 4.41422C50.6839 6.54539 42.6127 14.1932 43.6854 18.8156C44.7581 23.438 51.4034 20.4067 56.6098 14.3558L63.8046 12.6137L93.3883 33.7628L101.283 32.973L102.722 6.23181Z" fill="#FC8700"/>
<path d="M93.3879 34.343C93.2381 34.3436 93.0927 34.2985 92.9758 34.2153L63.6342 13.2172L56.9888 14.8373C52.999 19.4249 48.427 22.1135 45.5753 21.5328C44.6596 21.347 43.4757 20.7431 43.044 18.908C41.8274 13.6817 50.8405 5.65066 53.1363 3.94341C56.1516 1.7019 62.4895 -0.789301 65.9627 0.238538C67.3755 0.656642 70.8093 1.98064 74.4656 3.37432C78.9198 5.11642 84.4598 7.21275 85.5848 7.38696C87.0826 7.60762 96.5798 6.45784 102.591 5.64486C102.687 5.63058 102.786 5.63568 102.88 5.6598C102.974 5.68392 103.061 5.72644 103.134 5.78422C103.206 5.84174 103.262 5.91272 103.3 5.99205C103.337 6.07139 103.354 6.15709 103.349 6.24298L101.91 33.0132C101.911 33.1568 101.852 33.2956 101.745 33.4028C101.637 33.5101 101.489 33.5782 101.328 33.5939L93.4598 34.343H93.3879ZM63.7846 11.9977C63.9344 11.9972 64.0799 12.0423 64.1967 12.1255L93.5841 33.1816L100.655 32.4732L102.028 6.9224C98.6793 7.37534 87.3574 8.85613 85.3886 8.56578C84.1655 8.38576 80.0579 6.82368 73.9293 4.50088C70.3188 3.113 66.9045 1.80062 65.5506 1.39994C62.5484 0.511467 56.6879 2.87492 53.9735 4.88414C51.161 6.97466 43.3318 14.4367 44.326 18.7222C44.5614 19.721 45.0651 20.2843 45.8631 20.4643C48.185 20.9347 52.4823 18.2344 56.0862 14.0418C56.1728 13.9402 56.2946 13.8668 56.4329 13.8327L63.6276 12.0906C63.6754 12.0601 63.7284 12.0366 63.7846 12.0209V11.9977Z" fill="black"/>
<path d="M88.1876 42.0945C88.0379 42.0951 87.8924 42.05 87.7756 41.9668L73.955 32.0194C73.8302 31.9197 73.7533 31.7813 73.7403 31.6328C73.7272 31.4842 73.7789 31.3369 73.8848 31.2212C73.9907 31.1056 74.1426 31.0305 74.309 31.0116C74.4755 30.9926 74.6438 31.0311 74.7792 31.1193L88.5997 41.0609C88.6664 41.1092 88.7217 41.1687 88.7624 41.2361C88.8032 41.3035 88.8285 41.3773 88.837 41.4534C88.8455 41.5294 88.837 41.6063 88.812 41.6794C88.787 41.7526 88.746 41.8206 88.6913 41.8796C88.6304 41.9463 88.5537 42.0001 88.4666 42.0372C88.3795 42.0744 88.2842 42.0939 88.1876 42.0945Z" fill="black"/>
<path d="M80.0981 47.1178C79.9596 47.1183 79.8244 47.0796 79.7122 47.0075L65.1787 37.5247C65.0408 37.4332 64.9491 37.2972 64.9234 37.1461C64.8976 36.995 64.94 36.841 65.0414 36.7175C65.1434 36.5941 65.2961 36.5115 65.4664 36.4876C65.6366 36.4637 65.8106 36.5004 65.9505 36.5897L80.484 46.0668C80.5961 46.1388 80.6796 46.2406 80.7224 46.3575C80.7653 46.4744 80.7652 46.6003 80.7223 46.7171C80.6794 46.834 80.5959 46.9357 80.4837 47.0077C80.3715 47.0797 80.2365 47.1183 80.0981 47.1178Z" fill="black"/>
<path d="M71.8547 51.0955C71.6926 51.0951 71.5364 51.0413 71.4165 50.9445L59.8198 41.543C59.6999 41.4344 59.6328 41.2885 59.6328 41.1365C59.6328 40.9845 59.6999 40.8385 59.8198 40.73C59.9371 40.6171 60.1 40.55 60.2728 40.5435C60.4456 40.537 60.6144 40.5915 60.742 40.6952L72.3191 50.0909C72.4171 50.17 72.4858 50.2736 72.516 50.3881C72.5462 50.5025 72.5366 50.6225 72.4884 50.732C72.4402 50.8415 72.3557 50.9354 72.246 51.0014C72.1364 51.0673 72.0068 51.1022 71.8743 51.1013L71.8547 51.0955Z" fill="black"/>
<path d="M77.2523 18.3096C71.2806 18.3096 63.7653 13.3156 63.3925 13.0833C63.3238 13.0376 63.2659 12.9803 63.2221 12.9146C63.1784 12.849 63.1496 12.7764 63.1374 12.7009C63.1253 12.6254 63.13 12.5485 63.1513 12.4747C63.1726 12.4008 63.2101 12.3314 63.2617 12.2704C63.3132 12.2094 63.3778 12.158 63.4517 12.1191C63.5256 12.0803 63.6074 12.0547 63.6924 12.0439C63.7775 12.0331 63.8641 12.0373 63.9473 12.0563C64.0305 12.0752 64.1087 12.1085 64.1774 12.1542C64.282 12.2239 74.5117 19.0239 79.8228 16.6895C79.9772 16.6265 80.1532 16.6194 80.3135 16.6696C80.4738 16.7199 80.6058 16.8235 80.6814 16.9587C80.7571 17.0938 80.7706 17.2498 80.719 17.3935C80.6673 17.5373 80.5547 17.6576 80.4049 17.7289C79.4191 18.1372 78.3397 18.336 77.2523 18.3096Z" fill="black"/>
<path d="M28.2038 5.366L27.7656 8.10109L23.4226 35.3127L23.0497 37.6355L2.21757 36.1431C1.17772 32.1243 0.653304 28.0139 0.654339 23.8903C0.644248 16.2278 2.46794 8.65078 6.00464 1.66113L28.2038 5.366Z" fill="#FC8700"/>
<path d="M23.0496 38.2219H22.9973L2.1651 36.7295C2.02729 36.7192 1.8967 36.6704 1.79211 36.59C1.68752 36.5097 1.6143 36.402 1.58298 36.2824C0.532269 32.2176 0.00129691 28.0607 0.000125689 23.8903C-0.0175371 16.1448 1.82658 8.48517 5.4093 1.42297C5.46878 1.30296 5.57226 1.20436 5.7029 1.1432C5.83353 1.08205 5.98364 1.06195 6.12878 1.08617L28.3214 4.79684C28.4871 4.82385 28.6346 4.90653 28.7333 5.02768C28.8319 5.14883 28.8742 5.29911 28.8512 5.44722L23.6971 37.7225C23.6751 37.8611 23.5974 37.9879 23.4785 38.0796C23.3595 38.1714 23.2072 38.2219 23.0496 38.2219ZM2.77339 35.603L22.5133 37.0199L27.4842 5.83629L6.41657 2.31725C3.03551 9.1126 1.29538 16.4614 1.30827 23.8903C1.30687 27.8296 1.79159 31.7573 2.75377 35.603H2.77339Z" fill="black"/>
<path d="M13.8676 34.0525C15.392 34.0525 16.6278 32.9553 16.6278 31.6019C16.6278 30.2485 15.392 29.1514 13.8676 29.1514C12.3432 29.1514 11.1074 30.2485 11.1074 31.6019C11.1074 32.9553 12.3432 34.0525 13.8676 34.0525Z" fill="black"/>
<path d="M13.8654 34.6279C13.1902 34.6279 12.53 34.4502 11.9686 34.1171C11.4071 33.784 10.9695 33.3106 10.7111 32.7567C10.4527 32.2028 10.385 31.5933 10.5168 31.0053C10.6485 30.4173 10.9737 29.8772 11.4512 29.4533C11.9287 29.0293 12.537 28.7406 13.1993 28.6237C13.8616 28.5067 14.5481 28.5667 15.172 28.7962C15.7959 29.0256 16.3291 29.4141 16.7043 29.9126C17.0794 30.4111 17.2797 30.9972 17.2797 31.5967C17.2797 32.4006 16.92 33.1716 16.2797 33.7401C15.6394 34.3086 14.7709 34.6279 13.8654 34.6279ZM13.8654 29.7326C13.4486 29.7326 13.0411 29.8425 12.6947 30.0482C12.3482 30.2539 12.0782 30.5463 11.919 30.8883C11.7598 31.2303 11.7185 31.6066 11.8003 31.9694C11.8821 32.3323 12.0833 32.6655 12.3785 32.9267C12.6737 33.188 13.0496 33.3656 13.4586 33.4371C13.8675 33.5086 14.2912 33.4708 14.6759 33.3283C15.0607 33.1859 15.3891 32.9454 15.6198 32.6371C15.8504 32.3288 15.9728 31.9668 15.9715 31.5967C15.9698 31.1018 15.7471 30.6277 15.3524 30.2783C14.9576 29.9288 14.4229 29.7326 13.8654 29.7326Z" fill="black"/>
<path d="M122.913 23.8905C122.914 28.016 122.39 32.1284 121.35 36.1491L100.517 37.6415L99.7979 33.1469L95.6445 7.13154L95.3633 5.38944L117.562 1.68457C121.096 8.66708 122.919 16.2358 122.913 23.8905Z" fill="#FC8700"/>
<path d="M100.517 38.2219C100.359 38.2233 100.205 38.1734 100.084 38.0815C99.9641 37.9897 99.8855 37.8621 99.8633 37.7225L94.7092 5.44722C94.6863 5.29911 94.7285 5.14883 94.8272 5.02768C94.9259 4.90653 95.0734 4.82385 95.239 4.79684L117.432 1.08617C117.577 1.06195 117.727 1.08205 117.858 1.1432C117.988 1.20436 118.092 1.30296 118.151 1.42297C121.736 8.48472 123.582 16.1444 123.567 23.8903C123.557 28.0596 123.017 32.2146 121.958 36.2766C121.927 36.3962 121.853 36.5039 121.749 36.5842C121.644 36.6646 121.514 36.7134 121.376 36.7237L100.544 38.2161L100.517 38.2219ZM96.1024 5.83629L101.08 37.0199L120.813 35.603C121.775 31.7573 122.26 27.8296 122.259 23.8903C122.278 16.4627 120.544 9.1139 117.17 2.31725L96.1024 5.83629Z" fill="black"/>
<path d="M109.702 34.0525C111.226 34.0525 112.462 32.9553 112.462 31.6019C112.462 30.2485 111.226 29.1514 109.702 29.1514C108.177 29.1514 106.941 30.2485 106.941 31.6019C106.941 32.9553 108.177 34.0525 109.702 34.0525Z" fill="black"/>
<path d="M109.701 34.6279C109.026 34.6279 108.366 34.4502 107.805 34.1171C107.243 33.784 106.805 33.3106 106.547 32.7567C106.289 32.2028 106.221 31.5933 106.353 31.0053C106.484 30.4173 106.81 29.8772 107.287 29.4533C107.765 29.0293 108.373 28.7406 109.035 28.6237C109.698 28.5067 110.384 28.5667 111.008 28.7962C111.632 29.0256 112.165 29.4141 112.54 29.9126C112.915 30.4111 113.116 30.9972 113.116 31.5967C113.116 32.4006 112.756 33.1716 112.116 33.7401C111.475 34.3086 110.607 34.6279 109.701 34.6279ZM109.701 29.7326C109.285 29.7326 108.877 29.8425 108.531 30.0482C108.184 30.2539 107.914 30.5463 107.755 30.8883C107.596 31.2303 107.554 31.6066 107.636 31.9694C107.718 32.3323 107.919 32.6655 108.214 32.9267C108.51 33.188 108.886 33.3656 109.295 33.4371C109.703 33.5086 110.127 33.4708 110.512 33.3283C110.897 33.1859 111.225 32.9454 111.456 32.6371C111.686 32.3288 111.809 31.9668 111.807 31.5967C111.806 31.1018 111.583 30.6277 111.188 30.2783C110.794 29.9288 110.259 29.7326 109.701 29.7326Z" fill="black"/>
</svg>
