<svg width="138" height="67" viewBox="0 0 138 67" fill="none" xmlns="http://www.w3.org/2000/svg">
<path d="M71.4629 17.7031H93.6564V34.8447H71.4629V17.7031Z" fill="#FC8700"/>
<path d="M93.6575 35.4007H71.4639C71.2979 35.4007 71.1387 35.3422 71.0213 35.2379C70.9038 35.1337 70.8379 34.9923 70.8379 34.8449V17.7033C70.8379 17.5559 70.9038 17.4145 71.0213 17.3103C71.1387 17.206 71.2979 17.1475 71.4639 17.1475H93.6575C93.8235 17.1475 93.9828 17.206 94.1002 17.3103C94.2176 17.4145 94.2835 17.5559 94.2835 17.7033V34.8449C94.2835 34.9923 94.2176 35.1337 94.1002 35.2379C93.9828 35.3422 93.8235 35.4007 93.6575 35.4007ZM72.09 34.2891H93.0314V18.2591H72.09V34.2891Z" fill="black"/>
<path d="M80.3672 17.7031H84.7621V23.8116H80.3672V17.7031Z" fill="#FC8700"/>
<path d="M84.7623 24.3673H80.38C80.2139 24.3673 80.0547 24.3088 79.9373 24.2045C79.8199 24.1003 79.7539 23.9589 79.7539 23.8115V17.6974C79.7539 17.55 79.8199 17.4086 79.9373 17.3044C80.0547 17.2002 80.2139 17.1416 80.38 17.1416H84.7623C84.9284 17.1416 85.0876 17.2002 85.205 17.3044C85.3224 17.4086 85.3884 17.55 85.3884 17.6974V23.8115C85.3884 23.9589 85.3224 24.1003 85.205 24.2045C85.0876 24.3088 84.9284 24.3673 84.7623 24.3673ZM81.006 23.2557H84.1363V18.2532H81.006V23.2557Z" fill="black"/>
<path d="M80.366 32.3993H74.7315C74.5655 32.3993 74.4062 32.3407 74.2888 32.2364C74.1714 32.1321 74.1055 31.9907 74.1055 31.8432C74.1055 31.6957 74.1714 31.5543 74.2888 31.45C74.4062 31.3457 74.5655 31.2871 74.7315 31.2871H80.366C80.532 31.2871 80.6913 31.3457 80.8087 31.45C80.9261 31.5543 80.992 31.6957 80.992 31.8432C80.992 31.9907 80.9261 32.1321 80.8087 32.2364C80.6913 32.3407 80.532 32.3993 80.366 32.3993Z" fill="black"/>
<path d="M49.2695 17.7031H71.4631V34.8447H49.2695V17.7031Z" fill="#FC8700"/>
<path d="M71.4641 35.4007H49.2706C49.1045 35.4007 48.9453 35.3422 48.8279 35.2379C48.7105 35.1337 48.6445 34.9923 48.6445 34.8449V17.7033C48.6445 17.5559 48.7105 17.4145 48.8279 17.3103C48.9453 17.206 49.1045 17.1475 49.2706 17.1475H71.4641C71.6302 17.1475 71.7894 17.206 71.9068 17.3103C72.0242 17.4145 72.0902 17.5559 72.0902 17.7033V34.8449C72.0902 34.9923 72.0242 35.1337 71.9068 35.2379C71.7894 35.3422 71.6302 35.4007 71.4641 35.4007ZM49.8966 34.2891H70.8381V18.2591H49.8966V34.2891Z" fill="black"/>
<path d="M58.1738 17.7031H62.5687V23.8116H58.1738V17.7031Z" fill="#FC8700"/>
<path d="M62.5612 24.3673H58.1788C58.0127 24.3673 57.8535 24.3088 57.7361 24.2045C57.6187 24.1003 57.5527 23.9589 57.5527 23.8115V17.6974C57.5527 17.55 57.6187 17.4086 57.7361 17.3044C57.8535 17.2002 58.0127 17.1416 58.1788 17.1416H62.5612C62.7272 17.1416 62.8864 17.2002 63.0038 17.3044C63.1212 17.4086 63.1872 17.55 63.1872 17.6974V23.8115C63.1872 23.9589 63.1212 24.1003 63.0038 24.2045C62.8864 24.3088 62.7272 24.3673 62.5612 24.3673ZM58.8048 23.2557H61.9351V18.2532H58.8048V23.2557Z" fill="black"/>
<path d="M58.1668 32.3993H52.5323C52.3663 32.3993 52.207 32.3407 52.0896 32.2364C51.9722 32.1321 51.9062 31.9907 51.9062 31.8432C51.9062 31.6957 51.9722 31.5543 52.0896 31.45C52.207 31.3457 52.3663 31.2871 52.5323 31.2871H58.1668C58.3328 31.2871 58.4921 31.3457 58.6095 31.45C58.7269 31.5543 58.7928 31.6957 58.7928 31.8432C58.7928 31.9907 58.7269 32.1321 58.6095 32.2364C58.4921 32.3407 58.3328 32.3993 58.1668 32.3993Z" fill="black"/>
<path d="M27.0703 17.7031H49.2639V34.8447H27.0703V17.7031Z" fill="#FC8700"/>
<path d="M49.2712 35.4007H27.0714C26.9053 35.4007 26.7461 35.3422 26.6287 35.2379C26.5113 35.1337 26.4453 34.9923 26.4453 34.8449V17.7033C26.4453 17.5559 26.5113 17.4145 26.6287 17.3103C26.7461 17.206 26.9053 17.1475 27.0714 17.1475H49.2712C49.4372 17.1475 49.5965 17.206 49.7139 17.3103C49.8313 17.4145 49.8972 17.5559 49.8972 17.7033V34.8449C49.8972 34.9923 49.8313 35.1337 49.7139 35.2379C49.5965 35.3422 49.4372 35.4007 49.2712 35.4007ZM27.6974 34.2891H48.6451V18.2591H27.6974V34.2891Z" fill="black"/>
<path d="M35.9727 17.7031H40.3675V23.8116H35.9727V17.7031Z" fill="#FC8700"/>
<path d="M40.3678 24.3673H35.9854C35.8194 24.3673 35.6601 24.3088 35.5427 24.2045C35.4253 24.1003 35.3594 23.9589 35.3594 23.8115V17.6974C35.3594 17.55 35.4253 17.4086 35.5427 17.3044C35.6601 17.2002 35.8194 17.1416 35.9854 17.1416H40.3678C40.5338 17.1416 40.6931 17.2002 40.8105 17.3044C40.9279 17.4086 40.9938 17.55 40.9938 17.6974V23.8115C40.9938 23.9589 40.9279 24.1003 40.8105 24.2045C40.6931 24.3088 40.5338 24.3673 40.3678 24.3673ZM36.6115 23.2557H39.7417V18.2532H36.6115V23.2557Z" fill="black"/>
<path d="M35.9734 32.3993H30.3389C30.1729 32.3993 30.0137 32.3407 29.8963 32.2364C29.7788 32.1321 29.7129 31.9907 29.7129 31.8432C29.7129 31.6957 29.7788 31.5543 29.8963 31.45C30.0137 31.3457 30.1729 31.2871 30.3389 31.2871H35.9734C36.1395 31.2871 36.2987 31.3457 36.4161 31.45C36.5335 31.5543 36.5995 31.6957 36.5995 31.8432C36.5995 31.9907 36.5335 32.1321 36.4161 32.2364C36.2987 32.3407 36.1395 32.3993 35.9734 32.3993Z" fill="black"/>
<path d="M4.87695 17.7031H27.0705V34.8447H4.87695V17.7031Z" fill="#FC8700"/>
<path d="M27.0716 35.4007H4.87801C4.71197 35.4007 4.55273 35.3422 4.43532 35.2379C4.31791 35.1337 4.25195 34.9923 4.25195 34.8449V17.7033C4.25195 17.5559 4.31791 17.4145 4.43532 17.3103C4.55273 17.206 4.71197 17.1475 4.87801 17.1475H27.0716C27.2376 17.1475 27.3968 17.206 27.5142 17.3103C27.6316 17.4145 27.6976 17.5559 27.6976 17.7033V34.8449C27.6976 34.9923 27.6316 35.1337 27.5142 35.2379C27.3968 35.3422 27.2376 35.4007 27.0716 35.4007ZM5.50406 34.2891H26.4455V18.2591H5.50406V34.2891Z" fill="black"/>
<path d="M13.7793 17.7031H18.1742V23.8116H13.7793V17.7031Z" fill="#FC8700"/>
<path d="M18.1744 24.3673H13.7921C13.626 24.3673 13.4668 24.3088 13.3494 24.2045C13.232 24.1003 13.166 23.9589 13.166 23.8115V17.6974C13.166 17.55 13.232 17.4086 13.3494 17.3044C13.4668 17.2002 13.626 17.1416 13.7921 17.1416H18.1744C18.3405 17.1416 18.4997 17.2002 18.6171 17.3044C18.7345 17.4086 18.8005 17.55 18.8005 17.6974V23.8115C18.8005 23.9589 18.7345 24.1003 18.6171 24.2045C18.4997 24.3088 18.3405 24.3673 18.1744 24.3673ZM14.4181 23.2557H17.5484V18.2532H14.4181V23.2557Z" fill="black"/>
<path d="M13.7801 32.3993H8.14558C7.97954 32.3993 7.8203 32.3407 7.7029 32.2364C7.58549 32.1321 7.51953 31.9907 7.51953 31.8432C7.51953 31.6957 7.58549 31.5543 7.7029 31.45C7.8203 31.3457 7.97954 31.2871 8.14558 31.2871H13.7801C13.9461 31.2871 14.1053 31.3457 14.2227 31.45C14.3401 31.5543 14.4061 31.6957 14.4061 31.8432C14.4061 31.9907 14.3401 32.1321 14.2227 32.2364C14.1053 32.3407 13.9461 32.3993 13.7801 32.3993Z" fill="black"/>
<path d="M60.3633 0.561523H82.5568V17.7031H60.3633V0.561523Z" fill="#FC8700"/>
<path d="M82.5641 18.2581H60.3643C60.1983 18.2581 60.0391 18.1996 59.9216 18.0953C59.8042 17.9911 59.7383 17.8497 59.7383 17.7023V0.560707C59.7383 0.413293 59.8042 0.271917 59.9216 0.167679C60.0391 0.0634422 60.1983 0.00488281 60.3643 0.00488281H82.5641C82.7302 0.00488281 82.8894 0.0634422 83.0068 0.167679C83.1242 0.271917 83.1902 0.413293 83.1902 0.560707V17.7023C83.1902 17.8497 83.1242 17.9911 83.0068 18.0953C82.8894 18.1996 82.7302 18.2581 82.5641 18.2581ZM60.9904 17.1465H81.9381V1.11653H60.9904V17.1465Z" fill="black"/>
<path d="M69.2676 0.561523H73.6625V6.67003H69.2676V0.561523Z" fill="#FC8700"/>
<path d="M73.6608 7.22571H69.2784C69.1124 7.22571 68.9531 7.16715 68.8357 7.06291C68.7183 6.95868 68.6523 6.8173 68.6523 6.66989V0.555824C68.6523 0.40841 68.7183 0.267034 68.8357 0.162797C68.9531 0.0585594 69.1124 0 69.2784 0H73.6608C73.8268 0 73.986 0.0585594 74.1034 0.162797C74.2209 0.267034 74.2868 0.40841 74.2868 0.555824V6.66989C74.2868 6.8173 74.2209 6.95868 74.1034 7.06291C73.986 7.16715 73.8268 7.22571 73.6608 7.22571ZM69.9044 6.11406H73.0347V1.11165H69.9044V6.11406Z" fill="black"/>
<path d="M69.2664 15.2577H63.6319C63.4659 15.2577 63.3066 15.1991 63.1892 15.0948C63.0718 14.9905 63.0059 14.8491 63.0059 14.7016C63.0059 14.5541 63.0718 14.4127 63.1892 14.3084C63.3066 14.2041 63.4659 14.1455 63.6319 14.1455H69.2664C69.4324 14.1455 69.5917 14.2041 69.7091 14.3084C69.8265 14.4127 69.8924 14.5541 69.8924 14.7016C69.8924 14.8491 69.8265 14.9905 69.7091 15.0948C69.5917 15.1991 69.4324 15.2577 69.2664 15.2577Z" fill="black"/>
<path d="M38.1699 0.561523H60.3635V17.7031H38.1699V0.561523Z" fill="#FC8700"/>
<path d="M60.3645 18.2581H38.171C38.0049 18.2581 37.8457 18.1996 37.7283 18.0953C37.6109 17.9911 37.5449 17.8497 37.5449 17.7023V0.560707C37.5449 0.413293 37.6109 0.271917 37.7283 0.167679C37.8457 0.0634422 38.0049 0.00488281 38.171 0.00488281H60.3645C60.5306 0.00488281 60.6898 0.0634422 60.8072 0.167679C60.9246 0.271917 60.9906 0.413293 60.9906 0.560707V17.7023C60.9906 17.8497 60.9246 17.9911 60.8072 18.0953C60.6898 18.1996 60.5306 18.2581 60.3645 18.2581ZM38.797 17.1465H59.7385V1.11653H38.797V17.1465Z" fill="black"/>
<path d="M47.0723 0.561523H51.4672V6.67003H47.0723V0.561523Z" fill="#FC8700"/>
<path d="M51.4674 7.22571H47.085C46.919 7.22571 46.7598 7.16715 46.6424 7.06291C46.5249 6.95868 46.459 6.8173 46.459 6.66989V0.555824C46.459 0.40841 46.5249 0.267034 46.6424 0.162797C46.7598 0.0585594 46.919 0 47.085 0H51.4674C51.6334 0 51.7927 0.0585594 51.9101 0.162797C52.0275 0.267034 52.0935 0.40841 52.0935 0.555824V6.66989C52.0935 6.8173 52.0275 6.95868 51.9101 7.06291C51.7927 7.16715 51.6334 7.22571 51.4674 7.22571ZM47.7111 6.11406H50.8414V1.11165H47.7111V6.11406Z" fill="black"/>
<path d="M47.0476 15.2577H41.4132C41.2471 15.2577 41.0879 15.1991 40.9705 15.0948C40.8531 14.9905 40.7871 14.8491 40.7871 14.7016C40.7871 14.5541 40.8531 14.4127 40.9705 14.3084C41.0879 14.2041 41.2471 14.1455 41.4132 14.1455H47.0476C47.2137 14.1455 47.3729 14.2041 47.4903 14.3084C47.6077 14.4127 47.6737 14.5541 47.6737 14.7016C47.6737 14.8491 47.6077 14.9905 47.4903 15.0948C47.3729 15.1991 47.2137 15.2577 47.0476 15.2577Z" fill="black"/>
<path d="M15.9766 0.561523H38.1701V17.7031H15.9766V0.561523Z" fill="#FC8700"/>
<path d="M38.1712 18.2581H15.9776C15.8116 18.2581 15.6523 18.1996 15.5349 18.0953C15.4175 17.9911 15.3516 17.8497 15.3516 17.7023V0.560707C15.3516 0.413293 15.4175 0.271917 15.5349 0.167679C15.6523 0.0634422 15.8116 0.00488281 15.9776 0.00488281H38.1712C38.3372 0.00488281 38.4964 0.0634422 38.6138 0.167679C38.7313 0.271917 38.7972 0.413293 38.7972 0.560707V17.7023C38.7972 17.8497 38.7313 17.9911 38.6138 18.0953C38.4964 18.1996 38.3372 18.2581 38.1712 18.2581ZM16.6037 17.1465H37.5451V1.11653H16.6037V17.1465Z" fill="black"/>
<path d="M24.8789 0.561523H29.2738V6.67003H24.8789V0.561523Z" fill="#FC8700"/>
<path d="M29.2682 7.22571H24.8858C24.7198 7.22571 24.5605 7.16715 24.4431 7.06291C24.3257 6.95868 24.2598 6.8173 24.2598 6.66989V0.555824C24.2598 0.40841 24.3257 0.267034 24.4431 0.162797C24.5605 0.0585594 24.7198 0 24.8858 0H29.2682C29.4342 0 29.5935 0.0585594 29.7109 0.162797C29.8283 0.267034 29.8942 0.40841 29.8942 0.555824V6.66989C29.8942 6.8173 29.8283 6.95868 29.7109 7.06291C29.5935 7.16715 29.4342 7.22571 29.2682 7.22571ZM25.5119 6.11406H28.6421V1.11165H25.5119V6.11406Z" fill="black"/>
<path d="M24.8797 15.2577H19.2452C19.0792 15.2577 18.9199 15.1991 18.8025 15.0948C18.6851 14.9905 18.6191 14.8491 18.6191 14.7016C18.6191 14.5541 18.6851 14.4127 18.8025 14.3084C18.9199 14.2041 19.0792 14.1455 19.2452 14.1455H24.8797C25.0457 14.1455 25.2049 14.2041 25.3224 14.3084C25.4398 14.4127 25.5057 14.5541 25.5057 14.7016C25.5057 14.8491 25.4398 14.9905 25.3224 15.0948C25.2049 15.1991 25.0457 15.2577 24.8797 15.2577Z" fill="black"/>
<path d="M0.625 31.0879H97.4565V56.389H0.625V31.0879Z" fill="#FC8700"/>
<path d="M97.4576 56.944H0.626052C0.460013 56.944 0.300774 56.8854 0.183366 56.7812C0.0659584 56.677 0 56.5356 0 56.3882V31.0871C0 30.9397 0.0659584 30.7983 0.183366 30.694C0.300774 30.5898 0.460013 30.5312 0.626052 30.5312H97.4576C97.6236 30.5312 97.7828 30.5898 97.9003 30.694C98.0177 30.7983 98.0836 30.9397 98.0836 31.0871V56.3882C98.0836 56.5356 98.0177 56.677 97.9003 56.7812C97.7828 56.8854 97.6236 56.944 97.4576 56.944ZM1.2521 55.8324H96.8315V31.6429H1.2521V55.8324Z" fill="black"/>
<path d="M132.24 56.3881C132.912 56.3884 133.557 56.1563 134.038 55.7412C134.52 55.326 134.8 54.7606 134.82 54.1648C135.145 43.3874 135.734 23.8057 134.651 19.4592C133.524 14.9626 125.999 7.87583 123.006 5.19676C122.627 4.85806 122.177 4.58899 121.68 4.40492C121.184 4.22086 120.652 4.12541 120.114 4.12402H97.457V56.3715L132.24 56.3881Z" fill="#FC8700"/>
<path d="M132.242 56.9441H97.4581C97.292 56.9441 97.1328 56.8855 97.0154 56.7813C96.898 56.677 96.832 56.5357 96.832 56.3882V4.1408C96.832 3.99338 96.898 3.85201 97.0154 3.74777C97.1328 3.64353 97.292 3.58497 97.4581 3.58497H120.115C120.73 3.58363 121.34 3.69051 121.908 3.89944C122.476 4.10837 122.993 4.4152 123.427 4.80223C126.595 7.63693 134.07 14.7237 135.234 19.337C136.348 23.7836 135.747 43.5487 135.422 54.1761C135.404 54.9148 135.061 55.618 134.467 56.1352C133.872 56.6525 133.074 56.9428 132.242 56.9441ZM98.0841 55.8324H132.242C132.748 55.8355 133.235 55.663 133.6 55.3514C133.965 55.0399 134.179 54.6142 134.195 54.1649C134.52 43.6043 135.115 23.8948 134.038 19.5983C132.924 15.1517 124.973 7.76477 122.563 5.60262C122.242 5.31544 121.861 5.0875 121.441 4.93199C121.021 4.77648 120.57 4.69648 120.115 4.69662H98.0841V55.8324Z" fill="black"/>
<path d="M135.076 45.1279H137.292V52.6371H135.076V45.1279Z" fill="#FC8700"/>
<path d="M137.293 53.1866H135.077C134.911 53.1866 134.752 53.128 134.635 53.0238C134.517 52.9195 134.451 52.7781 134.451 52.6307V45.1271C134.451 44.9797 134.517 44.8383 134.635 44.7341C134.752 44.6298 134.911 44.5713 135.077 44.5713H137.293C137.459 44.5713 137.619 44.6298 137.736 44.7341C137.854 44.8383 137.92 44.9797 137.92 45.1271V52.6307C137.92 52.7781 137.854 52.9195 137.736 53.0238C137.619 53.128 137.459 53.1866 137.293 53.1866ZM135.703 52.0749H136.667V45.6829H135.703V52.0749Z" fill="black"/>
<path d="M103.273 7.56446V33.2268H131.126V22.8996C131.126 18.1696 124.403 11.5997 121.335 8.85397C120.881 8.44503 120.34 8.1204 119.744 7.89901C119.147 7.67761 118.507 7.56389 117.86 7.56446H103.273Z" fill="#FC8700"/>
<path d="M131.128 33.7828H103.274C103.108 33.7828 102.949 33.7243 102.832 33.62C102.714 33.5158 102.648 33.3744 102.648 33.227V7.56462C102.648 7.4172 102.714 7.27583 102.832 7.17159C102.949 7.06735 103.108 7.00879 103.274 7.00879H117.862C118.59 7.0078 119.312 7.13555 119.985 7.38461C120.658 7.63366 121.268 7.99905 121.781 8.4595C125.506 11.7944 131.754 18.1142 131.754 22.9109V33.2381C131.75 33.3836 131.683 33.5221 131.566 33.624C131.449 33.7258 131.291 33.7829 131.128 33.7828ZM103.901 32.6712H130.501V22.8998C130.501 18.3476 123.778 11.8333 120.892 9.24321C120.495 8.8888 120.023 8.608 119.502 8.41716C118.982 8.22631 118.424 8.12923 117.862 8.13156H103.901V32.6712Z" fill="black"/>
<path d="M110.644 37.0683H104.509C104.343 37.0683 104.184 37.0097 104.066 36.9054C103.949 36.8011 103.883 36.6596 103.883 36.5122C103.883 36.3647 103.949 36.2232 104.066 36.1189C104.184 36.0146 104.343 35.9561 104.509 35.9561H110.644C110.81 35.9561 110.969 36.0146 111.087 36.1189C111.204 36.2232 111.27 36.3647 111.27 36.5122C111.27 36.6596 111.204 36.8011 111.087 36.9054C110.969 37.0097 110.81 37.0683 110.644 37.0683Z" fill="black"/>
<path d="M115.175 66.2487C121.064 66.2487 125.837 62.0108 125.837 56.7831C125.837 51.5553 121.064 47.3174 115.175 47.3174C109.287 47.3174 104.514 51.5553 104.514 56.7831C104.514 62.0108 109.287 66.2487 115.175 66.2487Z" fill="#383636"/>
<path d="M115.175 66.8046C112.946 66.8046 110.768 66.2178 108.915 65.1185C107.061 64.0191 105.617 62.4566 104.764 60.6284C103.911 58.8003 103.688 56.7887 104.123 54.8479C104.558 52.9072 105.631 51.1245 107.207 49.7253C108.783 48.3261 110.791 47.3732 112.977 46.9872C115.163 46.6011 117.429 46.7993 119.488 47.5565C121.547 48.3137 123.307 49.5961 124.545 51.2414C125.783 52.8867 126.444 54.821 126.444 56.7998C126.436 59.4509 125.246 61.9915 123.134 63.8661C121.023 65.7408 118.161 66.7972 115.175 66.8046ZM115.175 47.8677C113.194 47.8677 111.257 48.3892 109.61 49.3664C107.963 50.3436 106.679 51.7326 105.921 53.3576C105.163 54.9826 104.964 56.7707 105.351 58.4958C105.737 60.2209 106.691 61.8055 108.092 63.0493C109.493 64.293 111.278 65.14 113.221 65.4832C115.164 65.8263 117.178 65.6502 119.008 64.9771C120.839 64.304 122.403 63.1641 123.504 61.7016C124.605 60.2392 125.192 58.5198 125.192 56.7608C125.187 54.4026 124.131 52.1419 122.253 50.4733C120.376 48.8047 117.831 47.8639 115.175 47.8565V47.8677Z" fill="black"/>
<path d="M115.175 61.5296C118.127 61.5296 120.521 59.4044 120.521 56.7829C120.521 54.1613 118.127 52.0361 115.175 52.0361C112.222 52.0361 109.828 54.1613 109.828 56.7829C109.828 59.4044 112.222 61.5296 115.175 61.5296Z" fill="#FC8700"/>
<path d="M115.175 62.086C113.991 62.0871 112.835 61.7765 111.851 61.1937C110.866 60.6109 110.099 59.7819 109.646 58.8117C109.192 57.8416 109.074 56.7738 109.304 55.7437C109.535 54.7135 110.104 53.7671 110.941 53.0244C111.777 52.2818 112.843 51.7761 114.003 51.5715C115.164 51.3668 116.366 51.4724 117.459 51.8748C118.552 52.2773 119.486 52.9585 120.142 53.8323C120.799 54.7061 121.148 55.7331 121.147 56.7834C121.145 58.1893 120.516 59.5371 119.396 60.5313C118.276 61.5254 116.758 62.0845 115.175 62.086ZM115.175 52.5869C114.239 52.5858 113.325 52.831 112.547 53.2915C111.769 53.7519 111.162 54.4069 110.803 55.1736C110.444 55.9403 110.35 56.7843 110.532 57.5987C110.713 58.4131 111.163 59.1613 111.824 59.7488C112.485 60.3362 113.327 60.7365 114.244 60.8988C115.161 61.0612 116.112 60.9784 116.976 60.661C117.84 60.3435 118.578 59.8056 119.098 59.1154C119.618 58.4252 119.895 57.6136 119.895 56.7834C119.893 55.6718 119.396 54.6061 118.511 53.8196C117.626 53.0331 116.427 52.5899 115.175 52.5869Z" fill="black"/>
<path d="M23.7339 66.2487C29.6222 66.2487 34.3956 62.0108 34.3956 56.7831C34.3956 51.5553 29.6222 47.3174 23.7339 47.3174C17.8457 47.3174 13.0723 51.5553 13.0723 56.7831C13.0723 62.0108 17.8457 66.2487 23.7339 66.2487Z" fill="#383636"/>
<path d="M23.7338 66.8046C21.505 66.8046 19.3263 66.2178 17.4731 65.1185C15.6199 64.0191 14.1756 62.4566 13.3226 60.6284C12.4697 58.8003 12.2466 56.7887 12.6814 54.8479C13.1162 52.9072 14.1895 51.1245 15.7654 49.7253C17.3414 48.3261 19.3494 47.3732 21.5353 46.9872C23.7213 46.6011 25.9871 46.7993 28.0462 47.5565C30.1054 48.3137 31.8653 49.5961 33.1036 51.2414C34.3418 52.8867 35.0027 54.821 35.0027 56.7998C34.9945 59.4509 33.8046 61.9915 31.693 63.8661C29.5815 65.7408 26.72 66.7972 23.7338 66.8046ZM23.7338 47.8677C21.7526 47.8677 19.816 48.3892 18.1687 49.3664C16.5215 50.3436 15.2376 51.7326 14.4794 53.3576C13.7213 54.9826 13.5229 56.7707 13.9094 58.4958C14.2959 60.2209 15.2499 61.8055 16.6508 63.0493C18.0517 64.293 19.8365 65.14 21.7796 65.4832C23.7227 65.8263 25.7367 65.6502 27.5671 64.9771C29.3974 64.304 30.9618 63.1641 32.0625 61.7016C33.1631 60.2392 33.7506 58.5198 33.7506 56.7608C33.7457 54.4026 32.6891 52.1419 30.812 50.4733C28.935 48.8047 26.39 47.8639 23.7338 47.8565V47.8677Z" fill="black"/>
<path d="M23.7332 61.5296C26.686 61.5296 29.0797 59.4044 29.0797 56.7829C29.0797 54.1613 26.686 52.0361 23.7332 52.0361C20.7804 52.0361 18.3867 54.1613 18.3867 56.7829C18.3867 59.4044 20.7804 61.5296 23.7332 61.5296Z" fill="#FC8700"/>
<path d="M23.7331 62.086C22.5501 62.0871 21.3933 61.7765 20.4091 61.1937C19.4249 60.6109 18.6577 59.7819 18.2044 58.8117C17.7511 57.8416 17.6321 56.7738 17.8626 55.7437C18.0931 54.7135 18.6627 53.7671 19.4992 53.0244C20.3357 52.2818 21.4016 51.7761 22.562 51.5715C23.7223 51.3668 24.925 51.4724 26.0177 51.8748C27.1105 52.2773 28.0442 52.9585 28.7006 53.8323C29.3571 54.7061 29.7069 55.7331 29.7056 56.7834C29.704 58.1893 29.0742 59.5371 27.9545 60.5313C26.8348 61.5254 25.3166 62.0845 23.7331 62.086ZM23.7331 52.5869C22.798 52.5858 21.8835 52.831 21.1054 53.2915C20.3273 53.7519 19.7205 54.4069 19.3617 55.1736C19.003 55.9403 18.9085 56.7843 19.0902 57.5987C19.2719 58.4131 19.7216 59.1613 20.3824 59.7488C21.0431 60.3362 21.8853 60.7365 22.8024 60.8988C23.7195 61.0612 24.6702 60.9784 25.5342 60.661C26.3983 60.3435 27.1369 59.8056 27.6565 59.1154C28.1762 58.4252 28.4535 57.6136 28.4535 56.7834C28.4519 55.6718 27.9542 54.6061 27.0695 53.8196C26.1848 53.0331 24.9851 52.5899 23.7331 52.5869Z" fill="black"/>
<path d="M65.9609 56.3877H91.1095V58.8395H65.9609V56.3877Z" fill="black"/>
<path d="M91.1086 59.3958H65.96C65.794 59.3958 65.6348 59.3372 65.5174 59.2329C65.3999 59.1286 65.334 58.9872 65.334 58.8398V56.388C65.334 56.2405 65.3999 56.0991 65.5174 55.9949C65.6348 55.8906 65.794 55.832 65.96 55.832H91.1086C91.2746 55.832 91.4338 55.8906 91.5512 55.9949C91.6687 56.0991 91.7346 56.2405 91.7346 56.388V58.8398C91.7346 58.9872 91.6687 59.1286 91.5512 59.2329C91.4338 59.3372 91.2746 59.3958 91.1086 59.3958ZM66.5861 58.2838H90.4825V56.944H66.5861V58.2838Z" fill="black"/>
<path d="M97.4576 37.0683H0.626052C0.460013 37.0683 0.300774 37.0097 0.183366 36.9054C0.0659584 36.8011 0 36.6596 0 36.5122C0 36.3647 0.0659584 36.2232 0.183366 36.1189C0.300774 36.0146 0.460013 35.9561 0.626052 35.9561H97.4576C97.6236 35.9561 97.7828 36.0146 97.9003 36.1189C98.0177 36.2232 98.0836 36.3647 98.0836 36.5122C98.0836 36.6596 98.0177 36.8011 97.9003 36.9054C97.7828 37.0097 97.6236 37.0683 97.4576 37.0683Z" fill="black"/>
<path d="M109.823 22.0553C109.662 22.0547 109.507 21.999 109.391 21.8996C109.274 21.7955 109.209 21.6546 109.209 21.5078C109.209 21.3609 109.274 21.2201 109.391 21.1159L118.901 12.3506C119.016 12.2444 119.174 12.1834 119.34 12.1808C119.507 12.1781 119.667 12.2342 119.787 12.3367C119.906 12.4391 119.975 12.5796 119.978 12.7271C119.981 12.8746 119.918 13.017 119.802 13.1232L110.28 21.8885C110.221 21.9424 110.149 21.985 110.071 22.0136C109.992 22.0423 109.908 22.0565 109.823 22.0553Z" fill="#040404"/>
<path d="M112.515 30.8097C112.393 30.8094 112.274 30.7776 112.173 30.7182C112.071 30.6588 111.991 30.5745 111.942 30.4754C111.894 30.3764 111.879 30.2669 111.9 30.1605C111.92 30.054 111.975 29.9551 112.058 29.8759L125.38 17.1698C125.494 17.0622 125.651 16.9991 125.817 16.9944C125.983 16.9897 126.145 17.0438 126.266 17.1448C126.387 17.2458 126.458 17.3854 126.463 17.5329C126.469 17.6804 126.408 17.8237 126.294 17.9313L112.972 30.6263C112.914 30.6832 112.843 30.7289 112.765 30.7604C112.686 30.792 112.601 30.8088 112.515 30.8097Z" fill="#040404"/>
<path d="M129.293 27.6074H129.287C127.876 27.6074 126.732 28.6227 126.732 29.8752V33.0045C126.732 34.2569 127.876 35.2722 129.287 35.2722H129.293C130.704 35.2722 131.847 34.2569 131.847 33.0045V29.8752C131.847 28.6227 130.704 27.6074 129.293 27.6074Z" fill="black"/>
<path d="M129.292 35.8285C128.448 35.8285 127.638 35.5312 127.041 35.0019C126.444 34.4725 126.107 33.7543 126.105 33.0049V29.8756C126.142 29.1477 126.493 28.4603 127.086 27.9567C127.679 27.453 128.468 27.1719 129.289 27.1719C130.11 27.1719 130.899 27.453 131.492 27.9567C132.085 28.4603 132.436 29.1477 132.472 29.8756V33.0049C132.471 33.7533 132.135 34.4707 131.539 34.9999C130.943 35.5291 130.135 35.8271 129.292 35.8285ZM129.292 28.1637C128.78 28.1637 128.289 28.3439 127.926 28.6648C127.564 28.9857 127.359 29.4211 127.358 29.8756V33.0049C127.359 33.4585 127.563 33.8931 127.924 34.2138C128.285 34.5346 128.775 34.7154 129.286 34.7169C129.797 34.7154 130.286 34.5346 130.647 34.2138C131.009 33.8931 131.212 33.4585 131.214 33.0049V29.8756C131.212 29.423 131.01 28.9893 130.65 28.6687C130.29 28.3481 129.802 28.1666 129.292 28.1637Z" fill="black"/>
</svg>
