<svg width="28" height="28" viewBox="0 0 28 28" fill="none" xmlns="http://www.w3.org/2000/svg">
<path fill-rule="evenodd" clip-rule="evenodd" d="M14.004 16.3372C16.9035 16.3372 19.254 13.9867 19.254 11.0872C19.254 8.18766 16.9035 5.83716 14.004 5.83716C11.1045 5.83716 8.75401 8.18766 8.75401 11.0872C8.75401 13.9867 11.1045 16.3372 14.004 16.3372ZM14.004 14.008C12.3909 14.008 11.0832 12.7003 11.0832 11.0872C11.0832 9.47401 12.3909 8.1663 14.004 8.1663C15.6172 8.1663 16.9249 9.47401 16.9249 11.0872C16.9249 12.7003 15.6172 14.008 14.004 14.008Z" fill="#FC8700"/>
<path fill-rule="evenodd" clip-rule="evenodd" d="M24.8171 13.5118C26.3255 6.75263 21.0059 0.00390625 13.9998 0.00390625C6.99572 0.00390625 1.67561 6.76189 3.18267 13.5127C4.34592 18.9955 9.04989 24.3207 11.8573 27.0978C13.0597 28.2871 14.9399 28.2871 16.1423 27.0978C18.9499 24.3206 23.6542 18.995 24.8171 13.5118ZM13.9998 2.33724C19.4977 2.33724 23.7261 7.68789 22.5398 13.0036C21.9701 15.5578 20.6917 17.8516 19.1916 19.9719C17.6239 22.1879 15.8466 24.1083 14.5014 25.4389C14.2081 25.729 13.7915 25.729 13.4983 25.4389C12.1531 24.1084 10.3759 22.1881 8.80826 19.9723C7.30804 17.8518 6.03016 15.5585 5.45995 13.0043C4.27493 7.69607 8.50496 2.33724 13.9998 2.33724Z" fill="#FC8700"/>
</svg>
