<svg width="31" height="37" viewBox="0 0 31 37" fill="none" xmlns="http://www.w3.org/2000/svg">
<g id="icon">
<path fill-rule="evenodd" clip-rule="evenodd" d="M15.5054 21.5941C19.5637 21.5941 22.8535 18.4865 22.8535 14.6531C22.8535 10.8197 19.5637 7.71211 15.5054 7.71211C11.4472 7.71211 8.15738 10.8197 8.15738 14.6531C8.15738 18.4865 11.4472 21.5941 15.5054 21.5941ZM15.5054 18.5148C13.2476 18.5148 11.4173 16.7858 11.4173 14.6531C11.4173 12.5204 13.2476 10.7915 15.5054 10.7915C17.7633 10.7915 19.5936 12.5204 19.5936 14.6531C19.5936 16.7858 17.7633 18.5148 15.5054 18.5148Z" fill="black"/>
<path fill-rule="evenodd" clip-rule="evenodd" d="M30.6399 17.8588C32.751 8.92245 25.3055 0 15.4996 0C5.69642 0 -1.74978 8.93469 0.359556 17.8599C1.98767 25.1087 8.5715 32.1491 12.5009 35.8207C14.1838 37.3931 16.8154 37.3931 18.4983 35.8207C22.4279 32.149 29.0122 25.108 30.6399 17.8588ZM15.4996 3.08489C23.1946 3.08489 29.1128 10.159 27.4524 17.1869C26.655 20.5637 24.8657 23.5963 22.7662 26.3996C20.572 29.3294 18.0844 31.8683 16.2016 33.6275C15.7912 34.011 15.208 34.011 14.7976 33.6275C12.9149 31.8684 10.4274 29.3296 8.2333 26.4001C6.13355 23.5966 4.34498 20.5647 3.54691 17.1877C1.88831 10.1698 7.8088 3.08489 15.4996 3.08489Z" fill="black"/>
</g>
</svg>
