<svg width="137" height="83" viewBox="0 0 137 83" fill="none" xmlns="http://www.w3.org/2000/svg">
<path d="M30.3067 26.8197C34.1691 26.8365 38.012 26.3324 41.704 25.3249C47.6853 23.668 53.1013 18.8543 54.785 18.3577C56.4687 17.8612 81.1354 25.0008 86.1806 22.5913C91.2258 20.1818 89.5421 16.0371 85.0561 14.375C80.5702 12.713 57.5872 4.08898 52.336 3.59245C47.0848 3.09592 30.2891 8.07169 30.2891 8.07169L30.3067 26.8197Z" fill="#FC8700"/>
<path d="M30.7774 27.3481H30.2829C30.1267 27.3481 29.977 27.2931 29.8666 27.195C29.7562 27.097 29.6942 26.9641 29.6942 26.8255V8.07226C29.6875 7.95828 29.723 7.84549 29.7953 7.75112C29.8675 7.65674 29.9726 7.58596 30.0945 7.54959C30.7892 7.34575 47.1021 2.54769 52.3946 3.04945C57.3927 3.51985 77.6029 11.0253 84.2434 13.5027L85.2619 13.8843C87.9699 14.8878 89.7184 16.7224 89.8302 18.6719C89.9244 20.3967 88.7176 21.949 86.4334 23.0414C83.1367 24.6094 73.1523 22.6232 62.2966 20.2556C58.941 19.5186 55.4617 18.7555 54.8966 18.8496C53.9357 19.3149 53.0287 19.8628 52.1885 20.4855C49.6689 22.1633 45.8658 24.693 41.8273 25.8167C38.2455 26.7937 34.5242 27.3094 30.7774 27.3481ZM30.8951 8.44858V26.2976C34.4992 26.2531 38.0782 25.7587 41.5271 24.8289C45.3713 23.7836 49.0802 21.2904 51.5351 19.6597C52.9244 18.7294 53.937 18.0604 54.5963 17.8618C55.2557 17.6632 57.1042 18.0395 62.6321 19.2468C70.1499 20.8932 82.7305 23.6477 85.8977 22.1319C87.7639 21.2434 88.747 20.0413 88.6764 18.7346C88.5881 17.2137 87.081 15.6927 84.8321 14.8564L83.8078 14.4801C66.0996 7.90501 55.497 4.41883 52.2945 4.11046C47.7026 3.67665 33.4972 7.70639 30.8951 8.44858Z" fill="black"/>
<path d="M100.33 0.519531L113.876 27.8965L49.2066 53.13L35.6611 25.7531L100.33 0.519531Z" fill="#FC8700"/>
<path d="M49.2041 53.6485C49.0892 53.6489 48.9767 53.6194 48.8804 53.5636C48.7842 53.5079 48.7084 53.4284 48.6625 53.3349L35.1223 25.9577C35.0634 25.8305 35.0634 25.6878 35.1223 25.5605C35.1499 25.4958 35.1917 25.4366 35.2452 25.3864C35.2988 25.3361 35.3631 25.2958 35.4343 25.2678L100.086 0.0440142C100.157 0.0163324 100.233 0.00140595 100.311 9.46198e-05C100.389 -0.00121671 100.466 0.0111135 100.538 0.036374C100.61 0.0616344 100.676 0.099326 100.732 0.147281C100.788 0.195237 100.832 0.252507 100.863 0.315798L114.403 27.6878C114.434 27.7506 114.451 27.8182 114.453 27.8869C114.455 27.9556 114.442 28.0239 114.414 28.088C114.386 28.152 114.344 28.2106 114.291 28.2603C114.237 28.31 114.174 28.3499 114.103 28.3777L49.4396 53.6015C49.3656 53.6314 49.2854 53.6474 49.2041 53.6485ZM36.441 26.0152L49.5161 52.4359L113.096 27.6303L100.021 1.21478L36.441 26.0152Z" fill="black"/>
<path d="M99.8494 9.43671L106.154 22.1845C105.014 22.6322 104.121 23.4629 103.669 24.4946C103.218 25.5262 103.246 26.6746 103.747 27.6882C103.798 27.794 103.857 27.897 103.923 27.9965L56.0027 46.6923C55.9644 46.5797 55.9172 46.4697 55.8614 46.363C55.3571 45.3548 54.4244 44.5643 53.2666 44.1639C52.1088 43.7635 50.8196 43.7856 49.68 44.2253L43.3691 31.4723C44.5047 31.0245 45.395 30.1964 45.846 29.1685C46.297 28.1406 46.2722 26.996 45.7769 25.9843C45.724 25.8745 45.6651 25.77 45.6062 25.6707L93.5443 6.96973C93.5853 7.07978 93.6325 7.18793 93.6856 7.29378C94.1889 8.29901 95.1182 9.08765 96.2719 9.48878C97.4257 9.8899 98.711 9.8712 99.8494 9.43671Z" fill="#FC8700"/>
<path d="M56.0041 47.2037C55.9189 47.2031 55.8347 47.1871 55.7568 47.1566C55.6821 47.1251 55.6156 47.08 55.5619 47.0241C55.5081 46.9683 55.4682 46.903 55.4448 46.8326C55.4095 46.7437 55.3683 46.6549 55.327 46.5608C54.8859 45.6782 54.0696 44.9861 53.0562 44.6356C52.0427 44.2851 50.9143 44.3045 49.9169 44.6896C49.8451 44.7162 49.768 44.7299 49.6902 44.7299C49.6124 44.7299 49.5354 44.7162 49.4636 44.6896C49.3203 44.6367 49.2047 44.5378 49.1398 44.4126L42.8289 31.6648C42.7977 31.6017 42.7809 31.5338 42.7794 31.4648C42.7779 31.3959 42.7918 31.3275 42.8203 31.2633C42.8487 31.1992 42.8912 31.1407 42.9452 31.0912C42.9992 31.0417 43.0637 31.0022 43.135 30.9749C44.1291 30.5833 44.9086 29.8585 45.3034 28.9588C45.6982 28.059 45.6763 27.0571 45.2426 26.1716C45.1955 26.0775 45.1425 25.9835 45.0895 25.8946C45.0504 25.8312 45.0266 25.7614 45.0195 25.6894C45.0124 25.6174 45.0222 25.5449 45.0483 25.4765C45.0752 25.4079 45.1179 25.3451 45.1736 25.292C45.2293 25.2389 45.2969 25.1967 45.3721 25.1681L93.2867 6.47762C93.3631 6.44786 93.4457 6.43286 93.5292 6.43362C93.6126 6.43438 93.6949 6.45087 93.7706 6.48201C93.8463 6.51314 93.9137 6.55821 93.9683 6.61422C94.0229 6.67023 94.0634 6.73591 94.0873 6.8069C94.1188 6.89828 94.1582 6.98739 94.205 7.07345C94.4204 7.51215 94.7313 7.90874 95.1199 8.24043C95.5084 8.57212 95.967 8.83238 96.4691 9.00626C96.9713 9.18013 97.5073 9.26419 98.0462 9.25361C98.5851 9.24303 99.1163 9.13801 99.6093 8.9446C99.6801 8.91675 99.7563 8.90156 99.8336 8.89989C99.911 8.89822 99.9879 8.9101 100.06 8.93486C100.132 8.95962 100.198 8.99677 100.254 9.04417C100.31 9.09158 100.355 9.14832 100.386 9.21116L106.697 21.9642C106.756 22.0914 106.756 22.2342 106.697 22.3614C106.643 22.4911 106.533 22.5964 106.391 22.6541C105.897 22.8453 105.45 23.1213 105.077 23.4663C104.703 23.8113 104.41 24.2184 104.214 24.6642C104.018 25.1101 103.924 25.5859 103.936 26.0643C103.948 26.5428 104.066 27.0144 104.284 27.4522C104.324 27.5422 104.371 27.6295 104.425 27.7135C104.467 27.7768 104.493 27.8472 104.502 27.9202C104.511 27.9931 104.503 28.0669 104.478 28.1369C104.452 28.2073 104.41 28.2722 104.355 28.3271C104.299 28.3821 104.23 28.4259 104.154 28.4557L56.2336 47.1462C56.1628 47.1801 56.0844 47.1997 56.0041 47.2037ZM51.5593 43.3359C52.5532 43.3366 53.5269 43.5854 54.369 44.054C55.2112 44.5226 55.888 45.192 56.322 45.9859L103.136 27.7239C102.672 26.6787 102.646 25.5208 103.06 24.4597C103.475 23.3984 104.303 22.504 105.396 21.938L99.5093 10.0892C98.3013 10.4213 96.9994 10.3588 95.8387 9.91308C94.6781 9.46736 93.7353 8.66779 93.1807 7.65884L46.3729 25.9155C46.8362 26.9607 46.863 28.1186 46.4483 29.1798C46.0337 30.241 45.2051 31.1355 44.1122 31.7014L49.9993 43.545C50.5046 43.4066 51.0305 43.3361 51.5593 43.3359Z" fill="black"/>
<path d="M77.1029 34.3308L76.5495 33.2123C76.0374 33.2803 75.5487 33.3691 75.0601 33.4057C74.1058 33.497 73.1448 33.298 72.3344 32.8413C71.6507 32.4348 71.1196 31.8559 70.8097 31.1792L73.2646 30.2227C73.4672 30.5973 73.8028 30.9024 74.2197 31.0912C74.6366 31.2801 75.1118 31.3422 75.5723 31.268L74.1182 28.2888C73.5589 28.3568 73.0114 28.4247 72.458 28.4822C71.8627 28.5516 71.2574 28.4943 70.6919 28.315C70.0899 28.1123 69.575 27.7466 69.2202 27.2696C68.7612 26.6922 68.4885 26.0145 68.4313 25.3097C68.3959 24.8017 68.4866 24.2931 68.6972 23.8198C68.9078 23.3465 69.2331 22.9202 69.6499 22.5709C69.9987 22.2948 70.3663 22.0382 70.7508 21.8026L70.8862 21.7137L70.1562 20.2346L72.4522 19.3408L72.5228 19.4819C72.7347 19.9053 72.9467 20.3287 73.1527 20.752C73.1998 20.8618 73.2528 20.8775 73.3764 20.8565C74.2294 20.6829 75.1177 20.7009 75.9608 20.9088C76.8501 21.1309 77.6168 21.6349 78.1155 22.3252C78.2568 22.5134 78.3745 22.712 78.5099 22.9158L76.0138 23.888C75.8579 23.5902 75.6081 23.3388 75.2947 23.1644C74.9812 22.9901 74.6176 22.9001 74.2477 22.9054L75.6135 25.6703L75.9079 25.618C76.6422 25.4731 77.3927 25.4029 78.1449 25.409C78.7053 25.408 79.2556 25.5416 79.7375 25.7955C80.2193 26.0494 80.6149 26.4143 80.8824 26.8515C81.3915 27.5708 81.5997 28.426 81.4706 29.2677C81.3415 30.1094 80.8832 30.884 80.176 31.4562C79.7874 31.775 79.3518 32.0573 78.9161 32.3709L79.4165 33.4371L77.1029 34.3308ZM76.632 27.8132L77.9036 30.3847C78.2498 30.1879 78.5319 29.914 78.7219 29.5903C78.8175 29.4227 78.8688 29.2379 78.8718 29.0501C78.8748 28.8622 78.8294 28.6762 78.7391 28.5063C78.6488 28.3364 78.516 28.187 78.3508 28.0696C78.1856 27.9522 77.9923 27.8699 77.7858 27.8289C77.4019 27.8026 77.0166 27.7973 76.632 27.8132ZM73.0114 26.078L71.7634 23.5953C71.5217 23.829 71.2956 24.0751 71.0864 24.3323C70.9745 24.4992 70.9109 24.6882 70.9014 24.8822C70.8918 25.0763 70.9365 25.2695 71.0316 25.4445C71.1266 25.6194 71.269 25.7708 71.446 25.885C71.623 25.9992 71.8291 26.0727 72.046 26.0989C72.3521 26.1198 72.6818 26.0884 73.0114 26.078Z" fill="black"/>
<path d="M24.3203 6.24805H30.3015V30.1391H24.3203V6.24805Z" fill="#FC8700"/>
<path d="M30.3063 30.6612H24.3192C24.163 30.6612 24.0133 30.6062 23.9029 30.5082C23.7925 30.4101 23.7305 30.2772 23.7305 30.1386V6.25802C23.7305 6.1194 23.7925 5.98645 23.9029 5.88844C24.0133 5.79042 24.163 5.73535 24.3192 5.73535H30.3063C30.4624 5.73535 30.6122 5.79042 30.7226 5.88844C30.833 5.98645 30.895 6.1194 30.895 6.25802V30.149C30.8919 30.2858 30.8285 30.4161 30.7185 30.5119C30.6084 30.6076 30.4604 30.6613 30.3063 30.6612ZM24.9079 29.6159H29.7176V6.78068H24.9079V29.6159Z" fill="black"/>
<path d="M0.587891 4.90527H25.0721V32.6431H0.587891V4.90527Z" fill="#FC8700"/>
<path d="M25.0729 33.166H0.588704C0.43257 33.166 0.28283 33.1109 0.172427 33.0129C0.0620235 32.9149 0 32.7819 0 32.6433V4.90548C0 4.76686 0.0620235 4.63392 0.172427 4.5359C0.28283 4.43788 0.43257 4.38281 0.588704 4.38281H25.0729C25.229 4.38281 25.3788 4.43788 25.4892 4.5359C25.5996 4.63392 25.6616 4.76686 25.6616 4.90548V32.6433C25.6616 32.7819 25.5996 32.9149 25.4892 33.0129C25.3788 33.1109 25.229 33.166 25.0729 33.166ZM1.17741 32.1206H24.4842V5.42814H1.17741V32.1206Z" fill="black"/>
<path d="M37.4062 23.334C37.995 23.5013 43.9467 28.6443 48.2443 30.1287C52.5418 31.613 62.8206 36.7561 65.6228 34.2734C68.425 31.7908 68.425 29.1304 65.6228 27.6408C62.8206 26.1512 53.2895 20.6684 51.7942 17.1875" fill="#FC8700"/>
<path d="M63.2971 35.4759C60.0887 35.4759 55.3614 33.5525 51.3582 31.9271C50.0454 31.4044 48.9151 30.934 48.032 30.6256C44.8295 29.5123 40.7733 26.4443 38.6128 24.8345C37.9946 24.3693 37.3471 23.8885 37.194 23.7892C37.0525 23.7409 36.9374 23.6461 36.8727 23.5244C36.808 23.4027 36.7987 23.2635 36.8467 23.1358C36.8716 23.0685 36.9118 23.0065 36.9646 22.9534C37.0174 22.9003 37.0818 22.8572 37.154 22.8269C37.2261 22.7966 37.3044 22.7797 37.3842 22.777C37.4639 22.7744 37.5434 22.7863 37.6179 22.8118C37.8534 22.885 38.1418 23.0888 39.384 24.0139C41.5151 25.5819 45.4771 28.5768 48.4912 29.6221C49.4096 29.9409 50.5576 30.4061 51.8822 30.9497C56.1561 32.6849 63.3148 35.5962 65.2398 33.887C66.6292 32.6588 67.3062 31.3678 67.1472 30.2284C67.0629 29.7685 66.8595 29.3324 66.553 28.9542C66.2466 28.576 65.8454 28.2661 65.3811 28.0489C64.8748 27.7823 53.0713 21.4581 51.3052 17.3343C51.2778 17.2701 51.2648 17.2017 51.2672 17.1331C51.2695 17.0645 51.287 16.997 51.3187 16.9344C51.3504 16.8717 51.3957 16.8153 51.4519 16.7682C51.5082 16.7211 51.5744 16.6844 51.6467 16.66C51.719 16.6356 51.7959 16.6242 51.8732 16.6262C51.9505 16.6283 52.0266 16.6438 52.0971 16.6719C52.1676 16.7001 52.2312 16.7403 52.2842 16.7903C52.3372 16.8402 52.3787 16.899 52.4061 16.9632C53.7013 19.9946 61.8254 24.9547 65.9816 27.1551C66.6059 27.448 67.1442 27.8668 67.5532 28.3778C67.9621 28.8889 68.2304 29.4779 68.3364 30.0977C68.5366 31.5455 67.7477 33.1449 66.0935 34.6031C65.7196 34.9109 65.2785 35.1473 64.7974 35.2974C64.3164 35.4476 63.8057 35.5083 63.2971 35.4759Z" fill="black"/>
<path d="M110.753 58.6714C110.753 58.6714 98.3899 55.0859 96.0351 53.6329C91.2372 50.6799 75.0243 51.2496 70.9446 52.5876C66.8648 53.9256 66.1584 55.0337 68.4131 56.6905C70.6679 58.3474 81.3057 58.5616 81.4941 60.0512C81.6825 61.5408 65.9877 63.229 62.9323 62.7377C59.8769 62.2464 49.604 56.0999 47.732 56.6017C45.8599 57.1034 43.4815 58.593 44.5824 61.2429C45.6833 63.8928 56.5684 72.245 60.4068 73.6876C68.9547 76.8967 109.97 77.6859 109.97 77.6859L110.753 58.6714Z" fill="#FC8700"/>
<path d="M109.971 78.2089C108.288 78.1776 68.7621 77.3779 60.1906 74.1687C56.1992 72.6739 45.2257 64.2904 44.0425 61.4262C43.8182 60.9508 43.7097 60.4387 43.7239 59.9235C43.7381 59.4083 43.8747 58.9016 44.1249 58.4365C44.9785 56.9312 46.8211 56.2988 47.5747 56.1002C48.7521 55.7814 51.572 57.088 56.0402 59.2362C58.8483 60.5951 61.7565 61.9959 63.0517 62.2102C66.2366 62.7328 79.2764 61.0917 80.8246 60.0202C80.2359 59.623 77.3513 59.1839 75.3909 58.8912C72.3709 58.4365 69.2507 57.9661 68.0321 57.0724C67.3139 56.5497 66.3837 55.7291 66.5721 54.7465C66.7605 53.7639 68.0086 52.959 70.7284 52.0705C74.8493 50.7272 91.333 50.0791 96.3605 53.189C98.6329 54.5845 110.825 58.1281 110.949 58.1595C111.072 58.1949 111.178 58.2653 111.251 58.3598C111.325 58.4543 111.361 58.5675 111.355 58.6822L110.56 77.7072C110.554 77.8421 110.489 77.9698 110.38 78.0633C110.27 78.1569 110.124 78.209 109.971 78.2089ZM48.0456 57.088C47.9988 57.0819 47.9512 57.0819 47.9043 57.088C47.4275 57.2187 45.8321 57.7205 45.1669 58.8912C44.9913 59.2298 44.8974 59.5972 44.8913 59.9698C44.8852 60.3425 44.9671 60.7122 45.1315 61.0551C46.1206 63.4332 56.6937 71.7174 60.638 73.1966C68.4383 76.1235 104.379 77.0277 109.4 77.1427L110.148 59.048C107.923 58.3947 97.8676 55.3894 95.6835 54.0618C93.6878 52.8388 89.1371 52.0914 83.1912 52.0234C78.2344 51.9607 73.1833 52.405 71.1228 53.0687C68.4442 53.9416 67.7908 54.5688 67.7201 54.9399C67.6495 55.311 68.2441 55.8964 68.768 56.2779C69.7453 56.9992 72.8418 57.4644 75.5734 57.872C79.7355 58.4992 81.9138 58.8808 82.0492 59.9627C82.0633 60.1034 82.0384 60.245 81.9769 60.3753C81.9153 60.5055 81.8189 60.6205 81.6959 60.7101C79.7238 62.3408 65.5007 63.6684 62.8221 63.2294C61.3386 62.9889 58.4834 61.6091 55.4574 60.1456C52.926 58.9278 49.0876 57.088 48.0456 57.088Z" fill="black"/>
<path d="M135.873 82.0293H107.686V54.2915H135.873V82.0293Z" fill="#FC8700"/>
<path d="M135.872 82.5674H107.673C107.517 82.5674 107.367 82.5123 107.256 82.4143C107.146 82.3163 107.084 82.1833 107.084 82.0447V54.2912C107.084 54.1526 107.146 54.0197 107.256 53.9216C107.367 53.8236 107.517 53.7686 107.673 53.7686H135.872C136.028 53.7686 136.177 53.8236 136.288 53.9216C136.398 54.0197 136.46 54.1526 136.46 54.2912V82.0447C136.46 82.1833 136.398 82.3163 136.288 82.4143C136.177 82.5123 136.028 82.5674 135.872 82.5674ZM108.261 81.5221H135.283V54.8139H108.261V81.5221Z" fill="black"/>
<path d="M115.143 82.5674C114.987 82.5674 114.838 82.5123 114.727 82.4143C114.617 82.3163 114.555 82.1833 114.555 82.0447V54.2912C114.555 54.1526 114.617 54.0197 114.727 53.9216C114.838 53.8236 114.987 53.7686 115.143 53.7686C115.3 53.7686 115.449 53.8236 115.56 53.9216C115.67 54.0197 115.732 54.1526 115.732 54.2912V82.0447C115.732 82.1833 115.67 82.3163 115.56 82.4143C115.449 82.5123 115.3 82.5674 115.143 82.5674Z" fill="black"/>
</svg>
