<svg width="30" height="25" viewBox="0 0 30 25" fill="none" xmlns="http://www.w3.org/2000/svg">
<path d="M17.196 1.37875L19.5108 7.54925C19.5601 7.66994 19.6515 7.77437 19.7724 7.84807C19.8934 7.92178 20.0378 7.96111 20.1857 7.96061H27.691C28.1785 7.95993 28.6538 8.09305 29.0485 8.34086C29.4431 8.58867 29.7368 8.93839 29.8874 9.33976C30.0379 9.74112 30.0375 10.1735 29.8863 10.5746C29.735 10.9758 29.4407 11.3251 29.0456 11.5724L22.9758 15.3899C22.8551 15.4666 22.7653 15.5742 22.7193 15.6975C22.6732 15.8208 22.6732 15.9536 22.7191 16.0769L25.0387 22.2474C25.1878 22.6483 25.1867 23.0797 25.0358 23.4801C24.8848 23.8804 24.5916 24.2293 24.198 24.477C23.8043 24.7246 23.3304 24.8583 22.8438 24.8591C22.3572 24.8598 21.8827 24.7275 21.4881 24.4811L15.4183 20.6636C15.2966 20.5873 15.1502 20.5463 15 20.5463C14.8498 20.5463 14.7034 20.5873 14.5817 20.6636L8.51193 24.4811C8.1173 24.7275 7.64283 24.8598 7.15621 24.8591C6.66958 24.8583 6.19565 24.7246 5.80204 24.477C5.40842 24.2293 5.11521 23.8804 4.96424 23.4801C4.81327 23.0797 4.81224 22.6483 4.96131 22.2474L7.28085 16.0769C7.32684 15.9536 7.32681 15.8208 7.28074 15.6975C7.23466 15.5742 7.1449 15.4666 7.02418 15.3899L0.954386 11.5724C0.559292 11.3251 0.264968 10.9758 0.113719 10.5746C-0.0375308 10.1735 -0.0379147 9.74112 0.112623 9.33976C0.263161 8.93839 0.556866 8.58867 0.951521 8.34086C1.34618 8.09305 1.82146 7.95993 2.30904 7.96061H9.81429C9.9622 7.96111 10.1066 7.92178 10.2276 7.84807C10.3485 7.77437 10.4399 7.66994 10.4892 7.54925L12.804 1.37875C12.9553 0.977858 13.2491 0.628622 13.6435 0.380986C14.0379 0.133351 14.5127 0 15 0C15.4873 0 15.9621 0.133351 16.3565 0.380986C16.7509 0.628622 17.0447 0.977858 17.196 1.37875Z" fill="#FC8700"/>
</svg>
