<svg width="28" height="28" viewBox="0 0 28 28" fill="none" xmlns="http://www.w3.org/2000/svg">
<path fill-rule="evenodd" clip-rule="evenodd" d="M21.1399 27.6433C18.4465 26.9685 12.9325 25.066 7.93366 20.0672C2.93485 15.0684 1.03239 9.55436 0.35755 6.86091C-0.0302689 5.31303 0.668087 3.81936 1.85224 2.97354L4.95658 0.756157C6.77295 -0.54125 9.29974 -0.100998 10.5703 1.73425L12.5247 4.55726C13.3543 5.75558 13.0681 7.39798 11.8821 8.24511L10.3238 9.35824C10.5596 10.2604 11.2932 12.113 13.5905 14.4103C15.8879 16.7077 17.7405 17.4412 18.6426 17.6771L19.7557 16.1187C20.6029 14.9327 22.2453 14.6466 23.4436 15.4762L26.2666 17.4306C28.1019 18.7011 28.5421 21.2279 27.2447 23.0443L25.0273 26.1486C24.1815 27.3328 22.6878 28.0311 21.1399 27.6433ZM9.81928 18.1816C14.3651 22.7274 19.3817 24.4537 21.788 25.0566C22.1397 25.1447 22.5649 25.008 22.8574 24.5986L25.0747 21.4943C25.5072 20.8889 25.3605 20.0466 24.7487 19.6231L21.9257 17.6687L20.7312 19.341C20.243 20.0245 19.3402 20.5605 18.289 20.3337C16.977 20.0506 14.5517 19.1427 11.7049 16.296C8.85811 13.4492 7.95023 11.0238 7.66715 9.71184C7.44034 8.66065 7.9764 7.75785 8.65983 7.26969L10.3322 6.07516L8.37779 3.25215C7.95427 2.64039 7.112 2.49364 6.50655 2.92611L3.40221 5.14349C2.99283 5.43591 2.85614 5.86111 2.94426 6.21281C3.54717 8.61915 5.27344 13.6357 9.81928 18.1816Z" fill="#FC8700"/>
</svg>
