<svg width="31" height="31" viewBox="0 0 31 31" fill="none" xmlns="http://www.w3.org/2000/svg">
<path d="M30.625 15.5C30.625 23.8533 23.8533 30.625 15.5 30.625C7.14669 30.625 0.375 23.8533 0.375 15.5C0.375 7.14669 7.14669 0.375 15.5 0.375C23.8533 0.375 30.625 7.14669 30.625 15.5ZM3.13439 15.5C3.13439 22.3293 8.67066 27.8656 15.5 27.8656C22.3293 27.8656 27.8656 22.3293 27.8656 15.5C27.8656 8.67066 22.3293 3.13439 15.5 3.13439C8.67066 3.13439 3.13439 8.67066 3.13439 15.5Z" fill="#FF9005"/>
<path d="M15.5 5.875C14.7406 5.875 14.125 6.49061 14.125 7.25V16.1417C14.125 16.1417 14.125 16.5002 14.2993 16.7699C14.4158 16.9985 14.5976 17.1972 14.8364 17.3351L21.1886 21.0026C21.8463 21.3822 22.6872 21.1569 23.0669 20.4993C23.4466 19.8416 23.2213 19.0007 22.5636 18.621L16.875 15.3367V7.25C16.875 6.49061 16.2594 5.875 15.5 5.875Z" fill="#FF9005"/>
</svg>
